<?xml version="1.0" encoding="UTF-8" standalone="no"?>
<!-- Created with Inkscape (http://www.inkscape.org/) -->

<svg
   xmlns:dc="http://purl.org/dc/elements/1.1/"
   xmlns:cc="http://creativecommons.org/ns#"
   xmlns:rdf="http://www.w3.org/1999/02/22-rdf-syntax-ns#"
   xmlns:svg="http://www.w3.org/2000/svg"
   xmlns="http://www.w3.org/2000/svg"
   xmlns:sodipodi="http://sodipodi.sourceforge.net/DTD/sodipodi-0.dtd"
   xmlns:inkscape="http://www.inkscape.org/namespaces/inkscape"
   width="710.30829"
   height="418.77774"
   id="svg2"
   version="1.1"
   inkscape:version="0.48.4 r9939"
   sodipodi:docname="figura-agrupamento-va-idenpendentes.pdf">
  <sodipodi:namedview
     id="base"
     pagecolor="#ffffff"
     bordercolor="#666666"
     borderopacity="1.0"
     inkscape:pageopacity="0.0"
     inkscape:pageshadow="2"
     inkscape:zoom="0.98994949"
     inkscape:cx="252.46895"
     inkscape:cy="234.67292"
     inkscape:document-units="px"
     inkscape:current-layer="layer1"
     showgrid="false"
     inkscape:window-width="1366"
     inkscape:window-height="744"
     inkscape:window-x="0"
     inkscape:window-y="24"
     inkscape:window-maximized="1"
     fit-margin-top="10"
     fit-margin-left="10"
     fit-margin-right="10"
     fit-margin-bottom="10" />
  <defs
     id="defs4">
    <marker
       inkscape:stockid="Arrow1Lend"
       orient="auto"
       refY="0"
       refX="0"
       id="Arrow1Lend"
       style="overflow:visible">
      <path
         inkscape:connector-curvature="0"
         id="path4174"
         d="M 0,0 5,-5 -12.5,0 5,5 0,0 z"
         style="fill-rule:evenodd;stroke:#000000;stroke-width:1pt"
         transform="matrix(-0.8,0,0,-0.8,-10,0)" />
    </marker>
  </defs>
  <metadata
     id="metadata7">
    <rdf:RDF>
      <cc:Work
         rdf:about="">
        <dc:format>image/svg+xml</dc:format>
        <dc:type
           rdf:resource="http://purl.org/dc/dcmitype/StillImage" />
        <dc:title></dc:title>
      </cc:Work>
    </rdf:RDF>
  </metadata>
  <g
     transform="translate(-1.8247881,-323.70982)"
     id="layer1"
     inkscape:groupmode="layer"
     inkscape:label="Layer 1">
    <path
       sodipodi:nodetypes="ccccc"
       inkscape:connector-curvature="0"
       id="path3759"
       d="m 109.68522,419.30176 c -57.187908,16.7927 -135.947914,115.57719 -75.386552,187.29839 43.598251,50.82029 35.148172,-81.2358 88.144252,-89.71436 57.93477,-5.1968 135.83647,51.59632 109.02057,-9.44362 -21.67746,-46.08789 -81.66484,-93.24933 -121.77827,-88.14041 z"
       style="fill:#f9f9f9;stroke:#000000;stroke-width:1.33750939px;stroke-linecap:butt;stroke-linejoin:miter;stroke-opacity:1" />
    <g
       id="g3769"
       transform="translate(-275.77164,91.923881)">
      <g
         word-spacing="normal"
         letter-spacing="normal"
         font-size-adjust="none"
         font-stretch="normal"
         font-weight="normal"
         font-variant="normal"
         font-style="normal"
         stroke-miterlimit="10.433"
         xml:space="preserve"
         transform="matrix(1.0629921,0,0,-1.0629921,-186.02362,789.27165)"
         id="content"
         style="font-style:normal;font-variant:normal;font-weight:normal;font-stretch:normal;letter-spacing:normal;word-spacing:normal;text-anchor:start;fill:none;stroke:#000000;stroke-linecap:butt;stroke-linejoin:miter;stroke-miterlimit:10.43299961;stroke-opacity:1;stroke-dasharray:none;stroke-dashoffset:0"><path
           id="path3772"
           d="m 487.66,440.82 0,0.02 0,0.02 0,0.01 -0.01,0.02 0,0.02 0,0.02 -0.01,0.02 0,0.02 -0.01,0.02 -0.01,0.02 -0.01,0.02 -0.01,0.02 -0.01,0.02 -0.01,0.02 -0.01,0.02 -0.02,0.02 -0.02,0.02 -0.01,0.02 -0.02,0.02 -0.02,0.02 -0.02,0.01 -0.03,0.02 -0.02,0.01 -0.03,0.02 -0.02,0.01 -0.03,0.01 -0.02,0.01 -0.01,0 -0.02,0.01 -0.02,0 -0.01,0 -0.02,0.01 -0.02,0 -0.02,0 -0.02,0 -0.02,0 -0.02,0 -0.02,0 c -0.25,0 -0.31,-0.04 -0.9,-0.75 l -2.39,-2.84 c -1.3,2.34 -3.89,3.59 -7.13,3.59 -6.33,0 -12.3,-5.73 -12.3,-11.76 0,-4.03 2.65,-6.33 5.18,-7.06 l 5.32,-1.41 c 1.85,-0.44 4.6,-1.19 4.6,-5.28 0,-4.49 -4.1,-9.16 -8.97,-9.16 -3.19,0 -8.72,1.1 -8.72,7.27 0,1.2 0.25,2.39 0.3,2.69 0.04,0.2 0.09,0.25 0.09,0.35 0,0.5 -0.34,0.55 -0.59,0.55 -0.25,0 -0.35,-0.05 -0.5,-0.2 -0.21,-0.2 -2.99,-11.56 -2.99,-11.7 0,-0.3 0.25,-0.5 0.55,-0.5 0.25,0 0.3,0.04 0.89,0.75 l 2.45,2.82 c 2.14,-2.89 5.52,-3.57 8.41,-3.57 6.78,0 12.66,6.62 12.66,12.79 0,3.44 -1.69,5.14 -2.44,5.83 -1.14,1.16 -1.89,1.34 -6.33,2.5 -1.09,0.3 -2.89,0.8 -3.34,0.89 -1.35,0.45 -3.03,1.89 -3.03,4.53 0,4.05 3.98,8.28 8.71,8.28 4.15,0 7.18,-2.14 7.18,-7.73 0,-1.59 -0.21,-2.49 -0.21,-2.78 0,-0.05 0,-0.5 0.61,-0.5 0.5,0 0.55,0.15 0.74,1 z"
           inkscape:connector-curvature="0"
           style="fill:#000000;stroke-width:0" /></g>    </g>
    <path
       sodipodi:type="star"
       style="fill:#f9f9f9;fill-opacity:1;stroke:#000000;stroke-width:2;stroke-miterlimit:4;stroke-opacity:1;stroke-dasharray:none;stroke-dashoffset:0"
       id="path3783"
       sodipodi:sides="7"
       sodipodi:cx="329.30972"
       sodipodi:cy="470.51431"
       sodipodi:r1="119.03095"
       sodipodi:r2="91.653831"
       sodipodi:arg1="0.52440922"
       sodipodi:arg2="0.97320817"
       inkscape:flatsided="false"
       inkscape:rounded="0.63"
       inkscape:randomized="0.081"
       d="m 441.3701,522.23674 c -19.43854,29.4157 -31.92598,8.22757 -58.83516,26.80819 -26.90919,18.58062 1.84571,40.43947 -31.3349,44.01179 -33.1806,3.57232 -27.20222,-22.33489 -58.37015,-32.67326 -31.16792,-10.33838 -28.72046,13.04003 -53.38683,-10.80374 -24.66636,-23.84377 13.02193,-13.39634 -3.12125,-44.18881 -16.14319,-30.79246 -38.14163,-6.85676 -33.60969,-39.74548 4.53194,-32.88872 23.74569,-11.78111 43.22656,-40.90083 19.48088,-29.11971 -17.99643,-38.92212 10.34402,-59.78618 28.34046,-20.86405 23.21713,20.92963 57.24026,18.64974 34.02313,-2.27988 23.29232,-32.81825 56.26201,-26.68121 32.9697,6.13703 -1.83088,24.1917 21.86659,47.1299 23.69746,22.93819 33.34474,-19.44898 45.39149,13.73285 12.04675,33.18183 -3.53907,19.07565 -7.83079,52.97943 -4.29172,33.90378 31.59637,22.0519 12.15784,51.46761 z"
       inkscape:transform-center-x="-1.9127911"
       inkscape:transform-center-y="0.58539255"
       transform="matrix(1.6736149,0,0,0.9933039,-47.9714,32.978495)" />
    <g
       transform="matrix(0.81,0,0,0.81,-201.58902,282.93768)"
       id="g3796">
      <g
         style="font-style:normal;font-variant:normal;font-weight:normal;font-stretch:normal;letter-spacing:normal;word-spacing:normal;text-anchor:start;fill:none;stroke:#000000;stroke-linecap:butt;stroke-linejoin:miter;stroke-miterlimit:10.43299961;stroke-opacity:1;stroke-dasharray:none;stroke-dashoffset:0"
         id="g3798"
         transform="matrix(1.0629921,0,0,-1.0629921,-186.02362,789.27165)"
         xml:space="preserve"
         stroke-miterlimit="10.433"
         font-style="normal"
         font-variant="normal"
         font-weight="normal"
         font-stretch="normal"
         font-size-adjust="none"
         letter-spacing="normal"
         word-spacing="normal"><path
           style="fill:#000000;stroke-width:0"
           inkscape:connector-curvature="0"
           d="m 475,424.84 -0.13,-0.01 -0.12,-0.01 -0.13,-0.02 -0.12,-0.03 -0.12,-0.03 -0.12,-0.04 -0.11,-0.04 -0.11,-0.04 -0.11,-0.05 -0.1,-0.06 -0.1,-0.06 -0.1,-0.06 -0.09,-0.07 -0.09,-0.07 -0.09,-0.07 -0.08,-0.08 -0.08,-0.08 -0.07,-0.08 -0.07,-0.09 -0.06,-0.08 -0.06,-0.09 -0.06,-0.1 -0.05,-0.09 -0.04,-0.1 -0.04,-0.09 -0.04,-0.1 -0.03,-0.1 -0.02,-0.1 -0.02,-0.1 -0.02,-0.11 0,-0.1 -0.01,-0.1 c 0,-0.7 0.44,-1.44 1.55,-1.44 1.09,0 2.28,0.85 2.28,2.78 0,2.25 -2.14,4.28 -5.92,4.28 -6.58,0 -8.42,-5.07 -8.42,-7.26 0,-3.89 3.69,-4.64 5.12,-4.94 2.6,-0.5 5.19,-1.05 5.19,-3.78 0,-1.3 -1.14,-5.48 -7.12,-5.48 -0.71,0 -4.54,0 -5.69,2.64 1.9,-0.25 3.14,1.25 3.14,2.64 0,1.14 -0.8,1.75 -1.85,1.75 -1.29,0 -2.78,-1.05 -2.78,-3.3 0,-2.84 2.85,-4.83 7.13,-4.83 8.06,0 10.01,6.03 10.01,8.27 0,1.79 -0.95,3.04 -1.54,3.64 -1.35,1.39 -2.8,1.64 -4.99,2.09 -1.79,0.39 -3.78,0.75 -3.78,2.99 0,1.45 1.19,4.48 5.58,4.48 1.23,0 3.73,-0.34 4.48,-2.28 z"
           id="path3800" /></g>    </g>
    <g
       id="g3828"
       transform="matrix(0.81,0,0,0.81,-119.4741,199.5531)">
      <g
         word-spacing="normal"
         letter-spacing="normal"
         font-size-adjust="none"
         font-stretch="normal"
         font-weight="normal"
         font-variant="normal"
         font-style="normal"
         stroke-miterlimit="10.433"
         xml:space="preserve"
         transform="matrix(1.0629921,0,0,-1.0629921,-186.02362,789.27165)"
         id="g3830"
         style="font-style:normal;font-variant:normal;font-weight:normal;font-stretch:normal;letter-spacing:normal;word-spacing:normal;text-anchor:start;fill:none;stroke:#000000;stroke-linecap:butt;stroke-linejoin:miter;stroke-miterlimit:10.43299961;stroke-opacity:1;stroke-dasharray:none;stroke-dashoffset:0"><path
           id="path3832"
           d="m 475,424.84 -0.13,-0.01 -0.12,-0.01 -0.13,-0.02 -0.12,-0.03 -0.12,-0.03 -0.12,-0.04 -0.11,-0.04 -0.11,-0.04 -0.11,-0.05 -0.1,-0.06 -0.1,-0.06 -0.1,-0.06 -0.09,-0.07 -0.09,-0.07 -0.09,-0.07 -0.08,-0.08 -0.08,-0.08 -0.07,-0.08 -0.07,-0.09 -0.06,-0.08 -0.06,-0.09 -0.06,-0.1 -0.05,-0.09 -0.04,-0.1 -0.04,-0.09 -0.04,-0.1 -0.03,-0.1 -0.02,-0.1 -0.02,-0.1 -0.02,-0.11 0,-0.1 -0.01,-0.1 c 0,-0.7 0.44,-1.44 1.55,-1.44 1.09,0 2.28,0.85 2.28,2.78 0,2.25 -2.14,4.28 -5.92,4.28 -6.58,0 -8.42,-5.07 -8.42,-7.26 0,-3.89 3.69,-4.64 5.12,-4.94 2.6,-0.5 5.19,-1.05 5.19,-3.78 0,-1.3 -1.14,-5.48 -7.12,-5.48 -0.71,0 -4.54,0 -5.69,2.64 1.9,-0.25 3.14,1.25 3.14,2.64 0,1.14 -0.8,1.75 -1.85,1.75 -1.29,0 -2.78,-1.05 -2.78,-3.3 0,-2.84 2.85,-4.83 7.13,-4.83 8.06,0 10.01,6.03 10.01,8.27 0,1.79 -0.95,3.04 -1.54,3.64 -1.35,1.39 -2.8,1.64 -4.99,2.09 -1.79,0.39 -3.78,0.75 -3.78,2.99 0,1.45 1.19,4.48 5.58,4.48 1.23,0 3.73,-0.34 4.48,-2.28 z"
           inkscape:connector-curvature="0"
           style="fill:#000000;stroke-width:0" /><path
           id="path3834"
           d="m 489.03,440.65 0.03,0.06 0.02,0.05 0.02,0.05 0.03,0.05 0.02,0.04 0.01,0.05 0.02,0.04 0.02,0.04 0.01,0.05 0.02,0.04 0.01,0.03 0.01,0.04 0.02,0.04 0.01,0.03 0,0.04 0.01,0.03 0.01,0.03 0.01,0.03 0,0.03 0.01,0.03 0,0.03 0.01,0.03 0,0.03 0,0.02 0.01,0.06 0,0.05 0,0.04 0,0.05 c 0,1.08 -0.98,1.92 -2.06,1.92 -1.33,0 -1.73,-1.09 -1.9,-1.64 l -4.61,-15.09 c -0.04,-0.06 -0.18,-0.52 -0.18,-0.56 0,-0.41 1.08,-0.77 1.36,-0.77 0.25,0 0.28,0.08 0.52,0.59 z"
           inkscape:connector-curvature="0"
           style="fill:#000000;stroke-width:0" /></g>    </g>
    <path
       sodipodi:type="arc"
       style="fill:#000000;fill-opacity:1;stroke:#000000;stroke-width:2;stroke-miterlimit:4;stroke-opacity:1;stroke-dasharray:none;stroke-dashoffset:0"
       id="path3852"
       sodipodi:cx="126.77415"
       sodipodi:cy="607.39001"
       sodipodi:rx="3.5355339"
       sodipodi:ry="3.5355339"
       d="m 130.30968,607.39001 c 0,1.95263 -1.58291,3.53554 -3.53553,3.53554 -1.95262,0 -3.53554,-1.58291 -3.53554,-3.53554 0,-1.95262 1.58292,-3.53553 3.53554,-3.53553 1.95262,0 3.53553,1.58291 3.53553,3.53553 z"
       transform="translate(-86.873119,-61.619305)" />
    <path
       sodipodi:type="arc"
       style="fill:#000000;fill-opacity:1;stroke:#000000;stroke-width:2;stroke-miterlimit:4;stroke-opacity:1;stroke-dasharray:none;stroke-dashoffset:0"
       id="path3852-3"
       sodipodi:cx="126.77415"
       sodipodi:cy="607.39001"
       sodipodi:rx="3.5355339"
       sodipodi:ry="3.5355339"
       d="m 130.30968,607.39001 c 0,1.95263 -1.58291,3.53554 -3.53553,3.53554 -1.95262,0 -3.53554,-1.58291 -3.53554,-3.53554 0,-1.95262 1.58292,-3.53553 3.53554,-3.53553 1.95262,0 3.53553,1.58291 3.53553,3.53553 z"
       transform="translate(-4.545689,-144.95692)" />
    <g
       transform="matrix(0.9,0,0,0.9,112.10478,152.55703)"
       id="g3892">
      <g
         style="font-style:normal;font-variant:normal;font-weight:normal;font-stretch:normal;letter-spacing:normal;word-spacing:normal;text-anchor:start;fill:none;stroke:#000000;stroke-linecap:butt;stroke-linejoin:miter;stroke-miterlimit:10.43299961;stroke-opacity:1;stroke-dasharray:none;stroke-dashoffset:0"
         id="g3894"
         transform="matrix(1.0629921,0,0,-1.0629921,-186.02362,789.27165)"
         xml:space="preserve"
         stroke-miterlimit="10.433"
         font-style="normal"
         font-variant="normal"
         font-weight="normal"
         font-stretch="normal"
         font-size-adjust="none"
         letter-spacing="normal"
         word-spacing="normal"><path
           style="fill:#000000;stroke-width:0"
           inkscape:connector-curvature="0"
           d="m 476.8,436.43 0.02,0.07 0.01,0.06 0.03,0.12 0.03,0.12 0.03,0.11 0.03,0.11 0.03,0.09 0.03,0.1 0.03,0.09 0.03,0.08 0.03,0.08 0.03,0.07 0.03,0.07 0.03,0.06 0.03,0.06 0.03,0.06 0.03,0.05 0.03,0.05 0.03,0.04 0.04,0.04 0.03,0.04 0.04,0.04 0.03,0.03 0.04,0.03 0.04,0.03 0.04,0.02 0.05,0.03 0.04,0.02 0.05,0.02 0.04,0.01 0.05,0.02 0.06,0.01 0.05,0.02 c 0.45,0.11 2.1,0.11 3.14,0.11 5.03,0 7.27,-0.21 7.27,-4.1 0,-0.73 -0.19,-2.68 -0.39,-3.98 -0.05,-0.19 -0.16,-0.8 -0.16,-0.94 0,-0.3 0.16,-0.66 0.59,-0.66 0.57,0 0.66,0.41 0.75,1.16 l 1.35,8.66 c 0.06,0.2 0.11,0.7 0.11,0.86 0,0.54 -0.5,0.54 -1.35,0.54 H 461.6 c -1.21,0 -1.25,-0.06 -1.6,-1 l -2.98,-8.76 c -0.06,-0.11 -0.3,-0.8 -0.3,-0.91 0,-0.3 0.24,-0.55 0.6,-0.55 0.5,0 0.54,0.25 0.84,1.05 2.69,7.72 3.98,8.63 11.36,8.63 h 1.94 c 1.4,0 1.4,-0.21 1.4,-0.6 0,-0.31 -0.15,-0.9 -0.2,-1.04 l -6.67,-26.61 c -0.45,-1.85 -0.61,-2.39 -5.94,-2.39 -1.8,0 -2.09,0 -2.09,-0.96 0,-0.59 0.54,-0.59 0.84,-0.59 1.36,0 2.75,0.09 4.09,0.09 1.4,0 2.85,0.07 4.24,0.07 1.39,0 2.78,-0.07 4.14,-0.07 1.44,0 2.94,-0.09 4.33,-0.09 0.5,0 1.09,0 1.09,1 0,0.55 -0.39,0.55 -1.69,0.55 -1.25,0 -1.89,0 -3.18,0.09 -1.46,0.16 -1.85,0.3 -1.85,1.09 0,0.07 0,0.32 0.19,1.05 z"
           id="path3896" /><path
           style="fill:#000000;stroke-width:0"
           inkscape:connector-curvature="0"
           d="m 499.7,411.86 -0.09,-0.03 -0.08,-0.02 -0.08,-0.03 -0.08,-0.02 -0.07,-0.04 -0.08,-0.03 -0.07,-0.04 -0.07,-0.04 -0.06,-0.04 -0.07,-0.04 -0.06,-0.05 -0.06,-0.05 -0.05,-0.05 -0.06,-0.05 -0.05,-0.05 -0.05,-0.06 -0.04,-0.05 -0.05,-0.06 -0.04,-0.06 -0.04,-0.06 -0.03,-0.06 -0.04,-0.06 -0.02,-0.06 -0.03,-0.06 -0.02,-0.07 -0.03,-0.06 -0.01,-0.07 -0.02,-0.06 -0.01,-0.07 -0.01,-0.06 0,-0.07 0,-0.06 c 0,-0.81 0.7,-1.12 1.15,-1.12 0.35,0 1.67,0.21 1.67,1.98 0,2.27 -2.5,3.03 -4.62,3.03 -5.44,0 -6.42,-4 -6.42,-5.08 0,-1.29 0.73,-2.12 1.22,-2.54 0.9,-0.71 1.53,-0.83 3.93,-1.25 0.74,-0.14 2.97,-0.57 2.97,-2.3 0,-0.59 -0.39,-1.92 -1.84,-2.8 -1.36,-0.76 -3.08,-0.76 -3.49,-0.76 -1.4,0 -3.39,0.31 -4.18,1.47 1.15,0.14 1.92,1 1.92,1.98 0,0.87 -0.63,1.28 -1.36,1.28 -1.02,0 -2.03,-0.8 -2.03,-2.33 0,-2.09 2.23,-3.37 5.61,-3.37 6.42,0 7.61,4.39 7.61,5.75 0,3.2 -3.53,3.83 -4.82,4.08 -0.31,0.06 -1.18,0.2 -1.39,0.26 -1.29,0.25 -1.92,0.99 -1.92,1.75 0,0.8 0.63,1.74 1.39,2.24 0.94,0.59 2.16,0.65 2.75,0.65 0.74,0 2.55,-0.11 3.32,-1.29 z"
           id="path3898" /></g>    </g>
    <path
       transform="translate(56.568543,37.375644)"
       inkscape:transform-center-y="0.80529195"
       inkscape:transform-center-x="1.6343805"
       d="m 583.9481,498.68076 c -7.0565,13.71708 -12.76726,-5.03334 -25.15733,4.10125 -12.39008,9.1346 -6.27041,11.82077 -21.49531,14.16254 -15.2249,2.34177 -4.2206,-3.56663 -17.75647,-10.08732 -13.53587,-6.52069 -13.2888,5.2306 -25.13985,-4.8387 -11.85105,-10.0693 2.71088,-7.99171 -1.08089,-22.73562 -3.79178,-14.74391 -14.62045,-4.39287 -14.41741,-20.03448 0.20303,-15.64161 13.51599,0.0396 22.48808,-12.76296 8.9721,-12.80259 -10.20113,-15.12095 2.76252,-23.43528 12.96366,-8.31433 13.58618,1.25212 28.29378,1.63438 14.70759,0.38226 7.06414,-13.87828 21.0011,-8.33145 13.93696,5.54683 4.30701,7.02674 15.44417,17.10097 11.13716,10.07422 13.29361,-2.86866 18.69472,11.53414 5.40111,14.40279 -12.51238,14.99371 -14.89449,29.82876 -2.38211,14.83506 18.31388,10.14669 11.25738,23.86377 z"
       inkscape:randomized="0.081"
       inkscape:rounded="0.63"
       inkscape:flatsided="false"
       sodipodi:arg2="1.0315384"
       sodipodi:arg1="0.58273949"
       sodipodi:r2="40.988838"
       sodipodi:r1="53.232262"
       sodipodi:cy="465.46356"
       sodipodi:cx="535.38086"
       sodipodi:sides="7"
       id="path3922"
       style="fill:#ffb380;fill-opacity:1;stroke:#000000;stroke-width:2;stroke-miterlimit:4;stroke-opacity:1;stroke-dasharray:none;stroke-dashoffset:0"
       sodipodi:type="star" />
    <path
       transform="translate(28.284271,11.111678)"
       inkscape:transform-center-y="0.34226168"
       inkscape:transform-center-x="0.54948912"
       d="m 422.26667,544.42835 c -6.31432,11.89118 -8.64932,-5.59247 -19.30409,2.02682 -10.65477,7.61928 0.035,15.18307 -13.43738,16.73206 -13.47238,1.54899 0.0891,-2.84098 -13.13964,-6.33544 -13.22876,-3.49447 -16.46311,8.47283 -26.27202,-0.62617 -9.8089,-9.09899 7.44637,-13.84308 3.13033,-26.09597 -4.31604,-12.25288 -13.1522,-0.55079 -12.2158,-14.26883 0.93641,-13.71803 5.67572,0.46129 13.39074,-11.00096 7.71502,-11.46224 -4.53895,-17.19204 6.28023,-24.34636 10.81919,-7.15433 4.91068,4.41134 17.76082,2.0739 12.85014,-2.33745 6.52357,-7.23547 19.91765,-4.65605 13.39407,2.57941 -2.18588,8.41302 8.01568,16.37635 10.20156,7.96332 14.07401,-4.76247 18.33091,7.45219 4.2569,12.21466 -7.34808,10.62092 -8.64069,23.53559 -1.29261,12.91467 12.49758,7.2417 6.18326,19.13287 z"
       inkscape:randomized="0.081"
       inkscape:rounded="0.63"
       inkscape:flatsided="false"
       sodipodi:arg2="0.97063323"
       sodipodi:arg1="0.52183428"
       sodipodi:r2="35.889339"
       sodipodi:r1="46.609535"
       sodipodi:cy="520.01178"
       sodipodi:cx="383.85797"
       sodipodi:sides="7"
       id="path3924"
       style="fill:#ff9955;fill-opacity:1;stroke:#000000;stroke-width:2;stroke-miterlimit:4;stroke-opacity:1;stroke-dasharray:none;stroke-dashoffset:0"
       sodipodi:type="star" />
    <g
       id="g3951"
       transform="matrix(0.9,0,0,0.9,257.17792,122.25246)">
      <g
         word-spacing="normal"
         letter-spacing="normal"
         font-size-adjust="none"
         font-stretch="normal"
         font-weight="normal"
         font-variant="normal"
         font-style="normal"
         stroke-miterlimit="10.433"
         xml:space="preserve"
         transform="matrix(1.0629921,0,0,-1.0629921,-186.02362,789.27165)"
         id="g3953"
         style="font-style:normal;font-variant:normal;font-weight:normal;font-stretch:normal;letter-spacing:normal;word-spacing:normal;text-anchor:start;fill:none;stroke:#000000;stroke-linecap:butt;stroke-linejoin:miter;stroke-miterlimit:10.43299961;stroke-opacity:1;stroke-dasharray:none;stroke-dashoffset:0"><path
           id="path3955"
           d="m 476.8,436.43 0.02,0.07 0.01,0.06 0.03,0.12 0.03,0.12 0.03,0.11 0.03,0.11 0.03,0.09 0.03,0.1 0.03,0.09 0.03,0.08 0.03,0.08 0.03,0.07 0.03,0.07 0.03,0.06 0.03,0.06 0.03,0.06 0.03,0.05 0.03,0.05 0.03,0.04 0.04,0.04 0.03,0.04 0.04,0.04 0.03,0.03 0.04,0.03 0.04,0.03 0.04,0.02 0.05,0.03 0.04,0.02 0.05,0.02 0.04,0.01 0.05,0.02 0.06,0.01 0.05,0.02 c 0.45,0.11 2.1,0.11 3.14,0.11 5.03,0 7.27,-0.21 7.27,-4.1 0,-0.73 -0.19,-2.68 -0.39,-3.98 -0.05,-0.19 -0.16,-0.8 -0.16,-0.94 0,-0.3 0.16,-0.66 0.59,-0.66 0.57,0 0.66,0.41 0.75,1.16 l 1.35,8.66 c 0.06,0.2 0.11,0.7 0.11,0.86 0,0.54 -0.5,0.54 -1.35,0.54 H 461.6 c -1.21,0 -1.25,-0.06 -1.6,-1 l -2.98,-8.76 c -0.06,-0.11 -0.3,-0.8 -0.3,-0.91 0,-0.3 0.24,-0.55 0.6,-0.55 0.5,0 0.54,0.25 0.84,1.05 2.69,7.72 3.98,8.63 11.36,8.63 h 1.94 c 1.4,0 1.4,-0.21 1.4,-0.6 0,-0.31 -0.15,-0.9 -0.2,-1.04 l -6.67,-26.61 c -0.45,-1.85 -0.61,-2.39 -5.94,-2.39 -1.8,0 -2.09,0 -2.09,-0.96 0,-0.59 0.54,-0.59 0.84,-0.59 1.36,0 2.75,0.09 4.09,0.09 1.4,0 2.85,0.07 4.24,0.07 1.39,0 2.78,-0.07 4.14,-0.07 1.44,0 2.94,-0.09 4.33,-0.09 0.5,0 1.09,0 1.09,1 0,0.55 -0.39,0.55 -1.69,0.55 -1.25,0 -1.89,0 -3.18,0.09 -1.46,0.16 -1.85,0.3 -1.85,1.09 0,0.07 0,0.32 0.19,1.05 z"
           inkscape:connector-curvature="0"
           style="fill:#000000;stroke-width:0" /><path
           id="path3957"
           d="m 499.7,411.86 -0.09,-0.03 -0.08,-0.02 -0.08,-0.03 -0.08,-0.02 -0.07,-0.04 -0.08,-0.03 -0.07,-0.04 -0.07,-0.04 -0.06,-0.04 -0.07,-0.04 -0.06,-0.05 -0.06,-0.05 -0.05,-0.05 -0.06,-0.05 -0.05,-0.05 -0.05,-0.06 -0.04,-0.05 -0.05,-0.06 -0.04,-0.06 -0.04,-0.06 -0.03,-0.06 -0.04,-0.06 -0.02,-0.06 -0.03,-0.06 -0.02,-0.07 -0.03,-0.06 -0.01,-0.07 -0.02,-0.06 -0.01,-0.07 -0.01,-0.06 0,-0.07 0,-0.06 c 0,-0.81 0.7,-1.12 1.15,-1.12 0.35,0 1.67,0.21 1.67,1.98 0,2.27 -2.5,3.03 -4.62,3.03 -5.44,0 -6.42,-4 -6.42,-5.08 0,-1.29 0.73,-2.12 1.22,-2.54 0.9,-0.71 1.53,-0.83 3.93,-1.25 0.74,-0.14 2.97,-0.57 2.97,-2.3 0,-0.59 -0.39,-1.92 -1.84,-2.8 -1.36,-0.76 -3.08,-0.76 -3.49,-0.76 -1.4,0 -3.39,0.31 -4.18,1.47 1.15,0.14 1.92,1 1.92,1.98 0,0.87 -0.63,1.28 -1.36,1.28 -1.02,0 -2.03,-0.8 -2.03,-2.33 0,-2.09 2.23,-3.37 5.61,-3.37 6.42,0 7.61,4.39 7.61,5.75 0,3.2 -3.53,3.83 -4.82,4.08 -0.31,0.06 -1.18,0.2 -1.39,0.26 -1.29,0.25 -1.92,0.99 -1.92,1.75 0,0.8 0.63,1.74 1.39,2.24 0.94,0.59 2.16,0.65 2.75,0.65 0.74,0 2.55,-0.11 3.32,-1.29 z"
           inkscape:connector-curvature="0"
           style="fill:#000000;stroke-width:0" /><path
           id="path3959"
           d="m 512.49,420.3 0,0 0,0 0.01,0.01 0,0.01 0.01,0.01 0.01,0.01 0,0.02 0.01,0.01 0.01,0.02 0.01,0.03 0.01,0.02 0.01,0.02 0.01,0.03 0.01,0.03 0.01,0.02 0.01,0.03 0.01,0.04 0.02,0.03 0.01,0.03 0.01,0.03 0.01,0.04 0.01,0.03 0.01,0.04 0.01,0.04 0,0.03 0.01,0.04 0.01,0.03 0,0.04 0.01,0.04 0,0.03 0.01,0.04 0,0.04 0,0.03 c 0,0.91 -0.8,1.47 -1.55,1.47 -1.01,0 -1.3,-0.76 -1.42,-1.14 l -3.83,-10.78 c -0.11,-0.31 -0.11,-0.38 -0.11,-0.41 0,-0.39 1.05,-0.64 1.08,-0.64 0.22,0 0.27,0.13 0.42,0.42 z"
           inkscape:connector-curvature="0"
           style="fill:#000000;stroke-width:0" /></g>    </g>
    <path
       sodipodi:type="arc"
       style="fill:#000000;fill-opacity:1;stroke:#000000;stroke-width:2;stroke-miterlimit:4;stroke-opacity:1;stroke-dasharray:none;stroke-dashoffset:0"
       id="path3852-6"
       sodipodi:cx="126.77415"
       sodipodi:cy="607.39001"
       sodipodi:rx="3.5355339"
       sodipodi:ry="3.5355339"
       d="m 130.30968,607.39001 c 0,1.95263 -1.58291,3.53554 -3.53553,3.53554 -1.95262,0 -3.53554,-1.58291 -3.53554,-3.53554 0,-1.95262 1.58292,-3.53553 3.53554,-3.53553 1.95262,0 3.53553,1.58291 3.53553,3.53553 z"
       transform="translate(277.28687,-81.317308)" />
    <path
       sodipodi:type="arc"
       style="fill:#000000;fill-opacity:1;stroke:#000000;stroke-width:2;stroke-miterlimit:4;stroke-opacity:1;stroke-dasharray:none;stroke-dashoffset:0"
       id="path3852-0"
       sodipodi:cx="126.77415"
       sodipodi:cy="607.39001"
       sodipodi:rx="3.5355339"
       sodipodi:ry="3.5355339"
       d="m 130.30968,607.39001 c 0,1.95263 -1.58291,3.53554 -3.53553,3.53554 -1.95262,0 -3.53554,-1.58291 -3.53554,-3.53554 0,-1.95262 1.58292,-3.53553 3.53554,-3.53553 1.95262,0 3.53553,1.58291 3.53553,3.53553 z"
       transform="translate(450.02295,-105.56097)" />
    <g
       transform="matrix(0.81,0,0,0.81,171.56859,258.77714)"
       id="g4046">
      <g
         style="font-style:normal;font-variant:normal;font-weight:normal;font-stretch:normal;letter-spacing:normal;word-spacing:normal;text-anchor:start;fill:none;stroke:#000000;stroke-linecap:butt;stroke-linejoin:miter;stroke-miterlimit:10.43299961;stroke-opacity:1;stroke-dasharray:none;stroke-dashoffset:0"
         id="g4048"
         transform="matrix(1.0629921,0,0,-1.0629921,-186.02362,789.27165)"
         xml:space="preserve"
         stroke-miterlimit="10.433"
         font-style="normal"
         font-variant="normal"
         font-weight="normal"
         font-stretch="normal"
         font-size-adjust="none"
         letter-spacing="normal"
         word-spacing="normal"><path
           style="fill:#000000;stroke-width:0"
           inkscape:connector-curvature="0"
           d="m 465.79,426.12 h 4.68 c 0.99,0 1.49,0 1.49,1 0,0.55 -0.5,0.55 -1.39,0.55 h -4.39 c 1.79,7.08 2.04,8.08 2.04,8.37 0,0.85 -0.59,1.35 -1.43,1.35 -0.16,0 -1.55,-0.05 -2,-1.8 l -1.94,-7.92 h -4.69 c -1,0 -1.5,0 -1.5,-0.94 0,-0.61 0.41,-0.61 1.41,-0.61 h 4.37 c -3.58,-14.14 -3.78,-14.98 -3.78,-15.89 0,-2.69 1.89,-4.58 4.58,-4.58 5.08,0 7.92,7.27 7.92,7.67 0,0.5 -0.39,0.5 -0.59,0.5 -0.46,0 -0.5,-0.15 -0.75,-0.7 -2.14,-5.17 -4.78,-6.37 -6.47,-6.37 -1.05,0 -1.55,0.65 -1.55,2.29 0,1.19 0.09,1.55 0.3,2.39 z"
           id="path4050" /></g>    </g>
    <g
       id="g4120"
       transform="matrix(0.81,0,0,0.81,344.50432,235.91859)">
      <g
         word-spacing="normal"
         letter-spacing="normal"
         font-size-adjust="none"
         font-stretch="normal"
         font-weight="normal"
         font-variant="normal"
         font-style="normal"
         stroke-miterlimit="10.433"
         xml:space="preserve"
         transform="matrix(1.0629921,0,0,-1.0629921,-186.02362,789.27165)"
         id="g4122"
         style="font-style:normal;font-variant:normal;font-weight:normal;font-stretch:normal;letter-spacing:normal;word-spacing:normal;text-anchor:start;fill:none;stroke:#000000;stroke-linecap:butt;stroke-linejoin:miter;stroke-miterlimit:10.43299961;stroke-opacity:1;stroke-dasharray:none;stroke-dashoffset:0"><path
           id="path4124"
           d="m 465.79,426.12 h 4.68 c 0.99,0 1.49,0 1.49,1 0,0.55 -0.5,0.55 -1.39,0.55 h -4.39 c 1.79,7.08 2.04,8.08 2.04,8.37 0,0.85 -0.59,1.35 -1.43,1.35 -0.16,0 -1.55,-0.05 -2,-1.8 l -1.94,-7.92 h -4.69 c -1,0 -1.5,0 -1.5,-0.94 0,-0.61 0.41,-0.61 1.41,-0.61 h 4.37 c -3.58,-14.14 -3.78,-14.98 -3.78,-15.89 0,-2.69 1.89,-4.58 4.58,-4.58 5.08,0 7.92,7.27 7.92,7.67 0,0.5 -0.39,0.5 -0.59,0.5 -0.46,0 -0.5,-0.15 -0.75,-0.7 -2.14,-5.17 -4.78,-6.37 -6.47,-6.37 -1.05,0 -1.55,0.65 -1.55,2.29 0,1.19 0.09,1.55 0.3,2.39 z"
           inkscape:connector-curvature="0"
           style="fill:#000000;stroke-width:0" /><path
           id="path4126"
           d="m 483.63,440.65 0.02,0.06 0.03,0.05 0.02,0.05 0.02,0.05 0.02,0.04 0.02,0.05 0.02,0.04 0.02,0.04 0.01,0.05 0.02,0.04 0.01,0.03 0.01,0.04 0.01,0.04 0.01,0.03 0.01,0.04 0.01,0.03 0.01,0.03 0,0.03 0.01,0.03 0.01,0.03 0,0.03 0.01,0.03 0,0.03 0,0.02 0.01,0.06 0,0.05 0,0.04 0,0.05 c 0,1.08 -0.98,1.92 -2.06,1.92 -1.33,0 -1.74,-1.09 -1.91,-1.64 l -4.61,-15.09 c -0.03,-0.06 -0.17,-0.52 -0.17,-0.56 0,-0.41 1.08,-0.77 1.36,-0.77 0.25,0 0.28,0.08 0.52,0.59 z"
           inkscape:connector-curvature="0"
           style="fill:#000000;stroke-width:0" /></g>    </g>
    <path
       style="fill:none;stroke:#000000;stroke-width:1px;stroke-linecap:butt;stroke-linejoin:miter;stroke-opacity:1;marker-end:url(#Arrow1Lend)"
       d="m 60.609153,547.28591 c 0,0 30.57574,-14.00196 150.525457,56.53547 56.27283,33.09171 165.65229,-119.16493 165.65229,-119.16493"
       id="path4165"
       inkscape:connector-curvature="0"
       sodipodi:nodetypes="csc" />
    <path
       style="fill:none;stroke:#000000;stroke-width:1px;stroke-linecap:butt;stroke-linejoin:miter;stroke-opacity:1;marker-end:url(#Arrow1Lend)"
       d="M 394.96965,542.23515 353.55339,664.46361"
       id="path4810"
       inkscape:connector-curvature="0" />
    <path
       style="fill:none;stroke:#000000;stroke-width:1px;stroke-linecap:butt;stroke-linejoin:miter;stroke-opacity:1;marker-end:url(#Arrow1Lend)"
       d="m 578.81741,515.97118 22.22335,149.50258"
       id="path4994"
       inkscape:connector-curvature="0" />
    <g
       transform="translate(241.42646,12.121831)"
       id="g5250">
      <g
         style="font-style:normal;font-variant:normal;font-weight:normal;font-stretch:normal;letter-spacing:normal;word-spacing:normal;text-anchor:start;fill:none;stroke:#000000;stroke-linecap:butt;stroke-linejoin:miter;stroke-miterlimit:10.43299961;stroke-opacity:1;stroke-dasharray:none;stroke-dashoffset:0"
         id="g5252"
         transform="matrix(1.0629921,0,0,-1.0629921,-186.02362,789.27165)"
         xml:space="preserve"
         stroke-miterlimit="10.433"
         font-style="normal"
         font-variant="normal"
         font-weight="normal"
         font-stretch="normal"
         font-size-adjust="none"
         letter-spacing="normal"
         word-spacing="normal"><path
           style="fill:#000000;stroke-width:0"
           inkscape:connector-curvature="0"
           d="m 476.8,436.43 0.02,0.07 0.01,0.06 0.03,0.12 0.03,0.12 0.03,0.11 0.03,0.11 0.03,0.09 0.03,0.1 0.03,0.09 0.03,0.08 0.03,0.08 0.03,0.07 0.03,0.07 0.03,0.06 0.03,0.06 0.03,0.06 0.03,0.05 0.03,0.05 0.03,0.04 0.04,0.04 0.03,0.04 0.04,0.04 0.03,0.03 0.04,0.03 0.04,0.03 0.04,0.02 0.05,0.03 0.04,0.02 0.05,0.02 0.04,0.01 0.05,0.02 0.06,0.01 0.05,0.02 c 0.45,0.11 2.1,0.11 3.14,0.11 5.03,0 7.27,-0.21 7.27,-4.1 0,-0.73 -0.19,-2.68 -0.39,-3.98 -0.05,-0.19 -0.16,-0.8 -0.16,-0.94 0,-0.3 0.16,-0.66 0.59,-0.66 0.57,0 0.66,0.41 0.75,1.16 l 1.35,8.66 c 0.06,0.2 0.11,0.7 0.11,0.86 0,0.54 -0.5,0.54 -1.35,0.54 H 461.6 c -1.21,0 -1.25,-0.06 -1.6,-1 l -2.98,-8.76 c -0.06,-0.11 -0.3,-0.8 -0.3,-0.91 0,-0.3 0.24,-0.55 0.6,-0.55 0.5,0 0.54,0.25 0.84,1.05 2.69,7.72 3.98,8.63 11.36,8.63 h 1.94 c 1.4,0 1.4,-0.21 1.4,-0.6 0,-0.31 -0.15,-0.9 -0.2,-1.04 l -6.67,-26.61 c -0.45,-1.85 -0.61,-2.39 -5.94,-2.39 -1.8,0 -2.09,0 -2.09,-0.96 0,-0.59 0.54,-0.59 0.84,-0.59 1.36,0 2.75,0.09 4.09,0.09 1.4,0 2.85,0.07 4.24,0.07 1.39,0 2.78,-0.07 4.14,-0.07 1.44,0 2.94,-0.09 4.33,-0.09 0.5,0 1.09,0 1.09,1 0,0.55 -0.39,0.55 -1.69,0.55 -1.25,0 -1.89,0 -3.18,0.09 -1.46,0.16 -1.85,0.3 -1.85,1.09 0,0.07 0,0.32 0.19,1.05 z"
           id="path5254" /></g>    </g>
    <g
       transform="matrix(1.8225,0,0,1.8225,-0.30444911,186.67393)"
       id="g3211">
      <g
         style="font-style:normal;font-variant:normal;font-weight:normal;font-stretch:normal;letter-spacing:normal;word-spacing:normal;text-anchor:start;fill:none;stroke:#000000;stroke-linecap:butt;stroke-linejoin:miter;stroke-miterlimit:10.43299961;stroke-opacity:1;stroke-dasharray:none;stroke-dashoffset:0"
         id="g3213"
         transform="matrix(0.59825391,0,0,-0.59825391,-104.69444,532.73122)"
         xml:space="preserve"
         stroke-miterlimit="10.433"
         font-style="normal"
         font-variant="normal"
         font-weight="normal"
         font-stretch="normal"
         font-size-adjust="none"
         letter-spacing="normal"
         word-spacing="normal"><path
           style="fill:#000000;stroke-width:0"
           inkscape:connector-curvature="0"
           d="m 487.5,441.48 -0.66,-0.01 -0.67,-0.04 -0.69,-0.05 -0.7,-0.08 -0.71,-0.11 -0.72,-0.12 -0.73,-0.16 -0.74,-0.17 -0.75,-0.21 -0.76,-0.22 -0.76,-0.26 -0.78,-0.28 -0.77,-0.3 -0.79,-0.34 -0.79,-0.36 -0.79,-0.38 c -3.62,-1.85 -7.17,-4.53 -9.31,-7.53 -1.69,-2.4 -2.74,-4.83 -2.74,-6.88 0,-0.34 0.05,-0.64 0.1,-0.94 0.34,-2.14 2.05,-3.43 4.73,-3.43 1.75,0 3.85,0.54 5.88,1.59 1.89,1 3.64,2.39 4.73,3.94 2,2.78 2.8,5.42 2.8,7.72 0,0.45 -0.05,0.89 -0.11,1.34 0,0.25 -0.25,0.39 -0.44,0.39 -0.15,-0.05 -0.29,-0.09 -0.45,-0.19 -0.16,-0.04 -0.25,-0.2 -0.25,-0.36 v -0.39 c 0,-2.09 -2,-4.98 -4.14,-8.01 -0.89,-1.3 -2.03,-2.6 -3.53,-3.55 -1.55,-0.94 -3.1,-1.39 -4.28,-1.39 -2.25,0 -3.49,1.05 -3.69,2.64 -0.05,0.2 -0.05,0.39 -0.05,0.59 0,1.8 0.99,4.03 2.69,6.43 1.94,2.79 5.17,5.39 8.67,7.12 3.94,2 7.81,2.89 11,2.89 3.74,0 6.94,-0.55 9.17,-1.94 -8.12,-5.98 -13.84,-14.09 -19.12,-21.51 -3.64,-5.19 -8.92,-10.31 -13.11,-10.31 -3.44,0 -5.99,0.89 -5.99,2.87 0,0.45 0.16,0.91 0.41,1.45 0.3,-0.5 0.84,-0.75 1.44,-0.75 1.29,0 2.79,1 2.79,1.94 0,1.25 -0.75,1.7 -1.64,1.7 -1.04,0 -2.25,-0.59 -2.84,-1.45 -0.84,-1.19 -1.2,-2.19 -1.2,-3.08 0,-2.59 3.18,-3.79 6.83,-3.79 5.73,0 13.5,5.14 17.59,10.92 1.09,1.54 2.23,3.19 3.48,4.87 0.71,-0.25 1.5,-0.29 2.3,-0.29 l 0.19,1.09 c -0.25,0 -0.44,0 -0.55,0.05 0.11,0.15 0.25,0.29 0.41,0.54 h 0 c 0.39,0.61 0.59,0.8 0.59,0.8 0.45,0.25 0.91,0.31 1.34,0.31 l 0.21,1.1 c -0.64,0 -1.3,-0.05 -2,-0.16 3.54,4.83 7.23,9.56 10.22,12.61 0.84,-0.84 1.34,-2 1.34,-3.34 0,-1.39 -0.55,-3.04 -1.84,-4.88 -1.14,-1.64 -2.49,-3.3 -4.28,-4.69 -1,0.3 -2.19,0.46 -3.44,0.46 h 0 l -0.21,-1.1 c 0.85,0 1.65,-0.11 2.35,-0.25 -1.44,-0.9 -2.99,-1.45 -4.14,-1.45 L 487.41,421 c 1.78,0 3.94,0.7 6.03,1.84 0.8,-0.45 1.35,-1.14 1.64,-2 0.1,-0.34 0.19,-0.73 0.19,-1.19 0,-1.69 -0.89,-3.94 -2.53,-6.23 -1.2,-1.64 -2.55,-3.33 -4.39,-4.67 -1.6,-1.16 -3.28,-1.85 -4.58,-1.85 -1.64,0 -2.69,0.6 -2.94,1.64 -0.04,0.21 -0.11,0.46 -0.11,0.71 0,0.98 0.5,2.28 1.5,3.67 0.66,0.95 1.85,1.75 3.05,2.29 1.53,0.66 2.98,0.91 4.23,0.91 0.14,0 0.25,0.05 0.35,0.14 l 0.2,0.3 c 0.05,0.05 0.05,0.15 0.05,0.25 0,0.2 -0.21,0.4 -0.41,0.4 -1.44,0 -3.08,-0.29 -4.83,-1.09 -1.34,-0.61 -2.78,-1.55 -3.59,-2.7 -1.03,-1.49 -1.64,-3.03 -1.64,-4.33 0,-0.34 0,-0.66 0.11,-0.95 0.44,-1.53 1.89,-2.35 3.83,-2.35 1.84,0 4.14,0.82 6.28,2.1 2.19,1.36 4.14,3.18 5.48,5.03 1.49,2.15 2.28,4.23 2.28,6.03 0,0.84 -0.18,1.7 -0.54,2.39 -0.44,1 -1.24,1.8 -2.24,2.39 2.05,1.41 3.83,3.09 5.13,4.89 1.25,1.8 1.79,3.44 1.79,4.88 0,1.7 -0.7,3.14 -1.84,4.29 -0.25,0.24 -0.5,0.49 -0.8,0.74 0.64,0.61 1.3,1.04 1.85,1.4 0.09,0.1 0.2,0.19 0.2,0.35 l -0.11,0.5 c -0.05,0.2 -0.25,0.29 -0.44,0.29 -0.06,0 -0.15,0 -0.2,-0.04 l -2.59,-1.64 c -2.69,1.53 -6.33,2.09 -10.32,2.09 z"
           id="path3215" /><path
           style="fill:#000000;stroke-width:0"
           inkscape:connector-curvature="0"
           d="m 509.34,412.53 h 3.55 c 0.65,0 1.11,0 1.11,0.76 0,0.49 -0.46,0.49 -1.03,0.49 h -3.32 l 1.28,5.15 c 0.03,0.18 0.11,0.35 0.11,0.49 0,0.64 -0.48,1.12 -1.18,1.12 -0.88,0 -1.4,-0.59 -1.65,-1.5 -0.23,-0.87 0.22,0.8 -1.32,-5.26 h -3.55 c -0.66,0 -1.11,0 -1.11,-0.77 0,-0.48 0.41,-0.48 1.05,-0.48 h 3.29 l -2.04,-8.22 c -0.22,-0.88 -0.53,-2.13 -0.53,-2.58 0,-2.06 1.75,-3.31 3.73,-3.31 3.88,0 6.06,4.87 6.06,5.33 0,0.45 -0.45,0.45 -0.56,0.45 -0.41,0 -0.45,-0.08 -0.72,-0.66 -0.98,-2.2 -2.76,-4.15 -4.67,-4.15 -0.73,0 -1.22,0.45 -1.22,1.7 0,0.36 0.14,1.09 0.2,1.44 z"
           id="path3217" /></g>    </g>
    <g
       id="g3328"
       transform="matrix(1.8225,0,0,1.8225,256.60333,190.71455)">
      <g
         word-spacing="normal"
         letter-spacing="normal"
         font-size-adjust="none"
         font-stretch="normal"
         font-weight="normal"
         font-variant="normal"
         font-style="normal"
         stroke-miterlimit="10.433"
         xml:space="preserve"
         transform="matrix(0.59825391,0,0,-0.59825391,-104.69444,532.73122)"
         id="g3330"
         style="font-style:normal;font-variant:normal;font-weight:normal;font-stretch:normal;letter-spacing:normal;word-spacing:normal;text-anchor:start;fill:none;stroke:#000000;stroke-linecap:butt;stroke-linejoin:miter;stroke-miterlimit:10.43299961;stroke-opacity:1;stroke-dasharray:none;stroke-dashoffset:0"><path
           id="path3332"
           d="m 487.5,441.48 -0.66,-0.01 -0.67,-0.04 -0.69,-0.05 -0.7,-0.08 -0.71,-0.11 -0.72,-0.12 -0.73,-0.16 -0.74,-0.17 -0.75,-0.21 -0.76,-0.22 -0.76,-0.26 -0.78,-0.28 -0.77,-0.3 -0.79,-0.34 -0.79,-0.36 -0.79,-0.38 c -3.62,-1.85 -7.17,-4.53 -9.31,-7.53 -1.69,-2.4 -2.74,-4.83 -2.74,-6.88 0,-0.34 0.05,-0.64 0.1,-0.94 0.34,-2.14 2.05,-3.43 4.73,-3.43 1.75,0 3.85,0.54 5.88,1.59 1.89,1 3.64,2.39 4.73,3.94 2,2.78 2.8,5.42 2.8,7.72 0,0.45 -0.05,0.89 -0.11,1.34 0,0.25 -0.25,0.39 -0.44,0.39 -0.15,-0.05 -0.29,-0.09 -0.45,-0.19 -0.16,-0.04 -0.25,-0.2 -0.25,-0.36 v -0.39 c 0,-2.09 -2,-4.98 -4.14,-8.01 -0.89,-1.3 -2.03,-2.6 -3.53,-3.55 -1.55,-0.94 -3.1,-1.39 -4.28,-1.39 -2.25,0 -3.49,1.05 -3.69,2.64 -0.05,0.2 -0.05,0.39 -0.05,0.59 0,1.8 0.99,4.03 2.69,6.43 1.94,2.79 5.17,5.39 8.67,7.12 3.94,2 7.81,2.89 11,2.89 3.74,0 6.94,-0.55 9.17,-1.94 -8.12,-5.98 -13.84,-14.09 -19.12,-21.51 -3.64,-5.19 -8.92,-10.31 -13.11,-10.31 -3.44,0 -5.99,0.89 -5.99,2.87 0,0.45 0.16,0.91 0.41,1.45 0.3,-0.5 0.84,-0.75 1.44,-0.75 1.29,0 2.79,1 2.79,1.94 0,1.25 -0.75,1.7 -1.64,1.7 -1.04,0 -2.25,-0.59 -2.84,-1.45 -0.84,-1.19 -1.2,-2.19 -1.2,-3.08 0,-2.59 3.18,-3.79 6.83,-3.79 5.73,0 13.5,5.14 17.59,10.92 1.09,1.54 2.23,3.19 3.48,4.87 0.71,-0.25 1.5,-0.29 2.3,-0.29 l 0.19,1.09 c -0.25,0 -0.44,0 -0.55,0.05 0.11,0.15 0.25,0.29 0.41,0.54 h 0 c 0.39,0.61 0.59,0.8 0.59,0.8 0.45,0.25 0.91,0.31 1.34,0.31 l 0.21,1.1 c -0.64,0 -1.3,-0.05 -2,-0.16 3.54,4.83 7.23,9.56 10.22,12.61 0.84,-0.84 1.34,-2 1.34,-3.34 0,-1.39 -0.55,-3.04 -1.84,-4.88 -1.14,-1.64 -2.49,-3.3 -4.28,-4.69 -1,0.3 -2.19,0.46 -3.44,0.46 h 0 l -0.21,-1.1 c 0.85,0 1.65,-0.11 2.35,-0.25 -1.44,-0.9 -2.99,-1.45 -4.14,-1.45 L 487.41,421 c 1.78,0 3.94,0.7 6.03,1.84 0.8,-0.45 1.35,-1.14 1.64,-2 0.1,-0.34 0.19,-0.73 0.19,-1.19 0,-1.69 -0.89,-3.94 -2.53,-6.23 -1.2,-1.64 -2.55,-3.33 -4.39,-4.67 -1.6,-1.16 -3.28,-1.85 -4.58,-1.85 -1.64,0 -2.69,0.6 -2.94,1.64 -0.04,0.21 -0.11,0.46 -0.11,0.71 0,0.98 0.5,2.28 1.5,3.67 0.66,0.95 1.85,1.75 3.05,2.29 1.53,0.66 2.98,0.91 4.23,0.91 0.14,0 0.25,0.05 0.35,0.14 l 0.2,0.3 c 0.05,0.05 0.05,0.15 0.05,0.25 0,0.2 -0.21,0.4 -0.41,0.4 -1.44,0 -3.08,-0.29 -4.83,-1.09 -1.34,-0.61 -2.78,-1.55 -3.59,-2.7 -1.03,-1.49 -1.64,-3.03 -1.64,-4.33 0,-0.34 0,-0.66 0.11,-0.95 0.44,-1.53 1.89,-2.35 3.83,-2.35 1.84,0 4.14,0.82 6.28,2.1 2.19,1.36 4.14,3.18 5.48,5.03 1.49,2.15 2.28,4.23 2.28,6.03 0,0.84 -0.18,1.7 -0.54,2.39 -0.44,1 -1.24,1.8 -2.24,2.39 2.05,1.41 3.83,3.09 5.13,4.89 1.25,1.8 1.79,3.44 1.79,4.88 0,1.7 -0.7,3.14 -1.84,4.29 -0.25,0.24 -0.5,0.49 -0.8,0.74 0.64,0.61 1.3,1.04 1.85,1.4 0.09,0.1 0.2,0.19 0.2,0.35 l -0.11,0.5 c -0.05,0.2 -0.25,0.29 -0.44,0.29 -0.06,0 -0.15,0 -0.2,-0.04 l -2.59,-1.64 c -2.69,1.53 -6.33,2.09 -10.32,2.09 z"
           inkscape:connector-curvature="0"
           style="fill:#000000;stroke-width:0" /><path
           id="path3334"
           d="m 509.34,412.53 h 3.55 c 0.65,0 1.11,0 1.11,0.76 0,0.49 -0.46,0.49 -1.03,0.49 h -3.32 l 1.28,5.15 c 0.03,0.18 0.11,0.35 0.11,0.49 0,0.64 -0.48,1.12 -1.18,1.12 -0.88,0 -1.4,-0.59 -1.65,-1.5 -0.23,-0.87 0.22,0.8 -1.32,-5.26 h -3.55 c -0.66,0 -1.11,0 -1.11,-0.77 0,-0.48 0.41,-0.48 1.05,-0.48 h 3.29 l -2.04,-8.22 c -0.22,-0.88 -0.53,-2.13 -0.53,-2.58 0,-2.06 1.75,-3.31 3.73,-3.31 3.88,0 6.06,4.87 6.06,5.33 0,0.45 -0.45,0.45 -0.56,0.45 -0.41,0 -0.45,-0.08 -0.72,-0.66 -0.98,-2.2 -2.76,-4.15 -4.67,-4.15 -0.73,0 -1.22,0.45 -1.22,1.7 0,0.36 0.14,1.09 0.2,1.44 z"
           inkscape:connector-curvature="0"
           style="fill:#000000;stroke-width:0" /><path
           id="path3336"
           d="m 524.73,420.3 0,0 0,0 0.01,0.01 0,0.01 0.01,0.01 0.01,0.01 0,0.02 0.01,0.01 0.01,0.02 0.01,0.03 0.01,0.02 0.01,0.02 0.01,0.03 0.01,0.03 0.01,0.02 0.02,0.03 0.01,0.04 0.01,0.03 0.01,0.03 0.01,0.03 0.01,0.04 0.01,0.03 0.01,0.04 0.01,0.04 0.01,0.03 0,0.04 0.01,0.03 0.01,0.04 0,0.04 0,0.03 0.01,0.04 0,0.04 0,0.03 c 0,0.91 -0.8,1.47 -1.55,1.47 -1.01,0 -1.29,-0.76 -1.42,-1.14 l -3.83,-10.78 c -0.11,-0.31 -0.11,-0.38 -0.11,-0.41 0,-0.39 1.05,-0.64 1.08,-0.64 0.22,0 0.27,0.13 0.42,0.42 z"
           inkscape:connector-curvature="0"
           style="fill:#000000;stroke-width:0" /></g>    </g>
  </g>
</svg>
