<?xml version="1.0" encoding="UTF-8" standalone="no"?>
<svg
   xmlns:dc="http://purl.org/dc/elements/1.1/"
   xmlns:cc="http://creativecommons.org/ns#"
   xmlns:rdf="http://www.w3.org/1999/02/22-rdf-syntax-ns#"
   xmlns:svg="http://www.w3.org/2000/svg"
   xmlns="http://www.w3.org/2000/svg"
   xmlns:sodipodi="http://sodipodi.sourceforge.net/DTD/sodipodi-0.dtd"
   xmlns:inkscape="http://www.inkscape.org/namespaces/inkscape"
   sodipodi:docname="grafo-k7.pdf"
   inkscape:version="0.48.4 r9939"
   id="Complete_graph_K7"
   height="223.46289"
   width="222.7764"
   version="1.1">
  <sodipodi:namedview
     pagecolor="#ffffff"
     bordercolor="#666666"
     borderopacity="1"
     objecttolerance="10"
     gridtolerance="10"
     guidetolerance="10"
     inkscape:pageopacity="0"
     inkscape:pageshadow="2"
     inkscape:window-width="1366"
     inkscape:window-height="744"
     id="namedview27"
     showgrid="false"
     inkscape:zoom="2"
     inkscape:cx="116.03676"
     inkscape:cy="126.9136"
     inkscape:window-x="0"
     inkscape:window-y="24"
     inkscape:window-maximized="1"
     inkscape:current-layer="Complete_graph_K7"
     fit-margin-top="10"
     fit-margin-left="10"
     fit-margin-right="10"
     fit-margin-bottom="10" />
  <metadata
     id="metadata31">
    <rdf:RDF>
      <cc:Work
         rdf:about="">
        <dc:format>image/svg+xml</dc:format>
        <dc:type
           rdf:resource="http://purl.org/dc/dcmitype/StillImage" />
        <dc:title></dc:title>
      </cc:Work>
    </rdf:RDF>
  </metadata>
  <defs
     id="defs29" />
  <polyline
     style="fill:none;stroke:#000000;stroke-width:70"
     points="5000,0 9875,6113 2831,9505 1091,1883 8909,1883 7169,9505 125,6113 5000,0 7169,9505 1091,1883 9875,6113 125,6113 8909,1883 2831,9505"
     id="polyline5"
     transform="matrix(0.018248,0,0,0.018248,19.854722,25.202792)" />
  <polyline
     style="fill:none;stroke:#000000;stroke-width:70"
     points="2831,9505 5000,0 8909,1883 9875,6113 7169,9505 2831,9505 125,6113 1091,1883 5000,0"
     id="polyline7"
     transform="matrix(0.018248,0,0,0.018248,19.854722,25.202792)" />
  <circle
     style="fill:#0000ff;stroke:#000000;stroke-width:70"
     d="m 3031,9505 c 0,110.4569 -89.5431,200 -200,200 -110.4569,0 -200,-89.5431 -200,-200 0,-110.4569 89.5431,-200 200,-200 110.4569,0 200,89.5431 200,200 z"
     id="circle11"
     r="200"
     cy="9505"
     cx="2831"
     sodipodi:cx="2831"
     sodipodi:cy="9505"
     sodipodi:rx="200"
     sodipodi:ry="200"
     transform="matrix(0.018248,0,0,0.018248,19.854722,25.202792)" />
  <circle
     style="fill:#ff7f2a;stroke:#000000;stroke-width:70"
     d="m 5200,0 c 0,110.45695 -89.5431,200 -200,200 -110.4569,0 -200,-89.54305 -200,-200 0,-110.45695 89.5431,-200 200,-200 110.4569,0 200,89.54305 200,200 z"
     id="circle13"
     r="200"
     cy="0"
     cx="5000"
     sodipodi:cx="5000"
     sodipodi:cy="0"
     sodipodi:rx="200"
     sodipodi:ry="200"
     transform="matrix(0.018248,0,0,0.018248,19.854722,25.202792)" />
  <circle
     style="fill:#ff6600;stroke:#000000;stroke-width:70"
     d="m 9109,1883 c 0,110.4569 -89.5431,200 -200,200 -110.4569,0 -200,-89.5431 -200,-200 0,-110.4569 89.5431,-200 200,-200 110.4569,0 200,89.5431 200,200 z"
     id="circle15"
     r="200"
     cy="1883"
     cx="8909"
     sodipodi:cx="8909"
     sodipodi:cy="1883"
     sodipodi:rx="200"
     sodipodi:ry="200"
     transform="matrix(0.018248,0,0,0.018248,19.854722,25.202792)" />
  <circle
     style="fill:#ff6600;stroke:#000000;stroke-width:70"
     d="m 10075,6113 c 0,110.4569 -89.5431,200 -200,200 -110.4569,0 -200,-89.5431 -200,-200 0,-110.4569 89.5431,-200 200,-200 110.4569,0 200,89.5431 200,200 z"
     id="circle17"
     r="200"
     cy="6113"
     cx="9875"
     sodipodi:cx="9875"
     sodipodi:cy="6113"
     sodipodi:rx="200"
     sodipodi:ry="200"
     transform="matrix(0.018248,0,0,0.018248,19.854722,25.202792)" />
  <circle
     style="fill:#ff6600;stroke:#000000;stroke-width:70"
     d="m 7369,9505 c 0,110.4569 -89.5431,200 -200,200 -110.4569,0 -200,-89.5431 -200,-200 0,-110.4569 89.5431,-200 200,-200 110.4569,0 200,89.5431 200,200 z"
     id="circle19"
     r="200"
     cy="9505"
     cx="7169"
     sodipodi:cx="7169"
     sodipodi:cy="9505"
     sodipodi:rx="200"
     sodipodi:ry="200"
     transform="matrix(0.018248,0,0,0.018248,19.854722,25.202792)" />
  <circle
     style="fill:#ff6600;stroke:#000000;stroke-width:70"
     d="m 3031,9505 c 0,110.4569 -89.5431,200 -200,200 -110.4569,0 -200,-89.5431 -200,-200 0,-110.4569 89.5431,-200 200,-200 110.4569,0 200,89.5431 200,200 z"
     id="circle21"
     r="200"
     cy="9505"
     cx="2831"
     sodipodi:cx="2831"
     sodipodi:cy="9505"
     sodipodi:rx="200"
     sodipodi:ry="200"
     transform="matrix(0.018248,0,0,0.018248,19.854722,25.202792)" />
  <circle
     style="fill:#ff6600;stroke:#000000;stroke-width:70"
     d="m 325,6113 c 0,110.4569 -89.54305,200 -200,200 -110.45695,0 -200,-89.5431 -200,-200 0,-110.4569 89.54305,-200 200,-200 110.45695,0 200,89.5431 200,200 z"
     id="circle23"
     r="200"
     cy="6113"
     cx="125"
     sodipodi:cx="125"
     sodipodi:cy="6113"
     sodipodi:rx="200"
     sodipodi:ry="200"
     transform="matrix(0.018248,0,0,0.018248,19.854722,25.202792)" />
  <circle
     style="fill:#ff6600;stroke:#000000;stroke-width:70"
     d="m 1291,1883 c 0,110.4569 -89.5431,200 -200,200 -110.45695,0 -200,-89.5431 -200,-200 0,-110.4569 89.54305,-200 200,-200 110.4569,0 200,89.5431 200,200 z"
     id="circle25"
     r="200"
     cy="1883"
     cx="1091"
     sodipodi:cx="1091"
     sodipodi:cy="1883"
     sodipodi:rx="200"
     sodipodi:ry="200"
     transform="matrix(0.018248,0,0,0.018248,19.854722,25.202792)" />
  <rect
     y="201.91348"
     x="74.411407"
     height="0.035640638"
     width="0.23522815"
     id="rect3406"
     style="fill:#000000;fill-opacity:1;stroke:#bfb8d6;stroke-width:0.06895921;stroke-miterlimit:4;stroke-opacity:1;stroke-dasharray:none;stroke-dashoffset:0" />
  <g
     id="g3011"
     transform="matrix(0.018248,0,0,0.018248,32.112362,-15.827258)">
    <g
       word-spacing="normal"
       letter-spacing="normal"
       font-size-adjust="none"
       font-stretch="normal"
       font-weight="normal"
       font-variant="normal"
       font-style="normal"
       stroke-miterlimit="10.433"
       xml:space="preserve"
       transform="matrix(14.788571,0,0,-14.788571,-2588,7914)"
       id="content"
       style="font-style:normal;font-variant:normal;font-weight:normal;font-stretch:normal;letter-spacing:normal;word-spacing:normal;text-anchor:start;fill:none;stroke:#000000;stroke-linecap:butt;stroke-linejoin:miter;stroke-miterlimit:10.43299961;stroke-opacity:1;stroke-dasharray:none;stroke-dashoffset:0"><path
         id="path3014"
         d="m 470.16,438.09 0,0.05 0,0.06 0,0.05 0,0.05 0,0.05 0,0.05 0,0.04 0,0.05 0,0.04 0,0.04 -0.01,0.04 0,0.04 0,0.04 0,0.03 0,0.04 -0.01,0.03 -0.01,0.07 0,0.06 -0.02,0.05 -0.01,0.05 -0.02,0.05 -0.02,0.04 -0.02,0.04 -0.02,0.03 -0.03,0.03 -0.03,0.03 -0.04,0.03 -0.04,0.02 -0.04,0.02 -0.03,0.01 -0.02,0.01 -0.03,0 -0.02,0.01 -0.03,0.01 -0.03,0 -0.03,0.01 -0.03,0 -0.04,0.01 -0.03,0 -0.04,0 -0.03,0.01 -0.04,0 -0.04,0 -0.05,0 -0.04,0 -0.04,0 -0.05,0.01 -0.05,0 -0.05,0 -0.05,0 -0.05,0 c -3.09,-3.19 -7.47,-3.19 -9.06,-3.19 v -1.55 c 1,0 3.93,0 6.51,1.3 v -25.81 c 0,-1.8 -0.14,-2.39 -4.62,-2.39 h -1.6 v -1.55 c 1.75,0.16 6.08,0.16 8.07,0.16 2,0 6.32,0 8.07,-0.16 v 1.55 h -1.59 c -4.48,0 -4.64,0.54 -4.64,2.39 z"
         inkscape:connector-curvature="0"
         style="fill:#000000;stroke-width:0" /></g>  </g>
  <g
     transform="matrix(0.018248,0,0,0.018248,111.97193,21.042242)"
     id="g3054">
    <g
       style="font-style:normal;font-variant:normal;font-weight:normal;font-stretch:normal;letter-spacing:normal;word-spacing:normal;text-anchor:start;fill:none;stroke:#000000;stroke-linecap:butt;stroke-linejoin:miter;stroke-miterlimit:10.43299961;stroke-opacity:1;stroke-dasharray:none;stroke-dashoffset:0"
       id="g3056"
       transform="matrix(14.788571,0,0,-14.788571,-2588,7914)"
       xml:space="preserve"
       stroke-miterlimit="10.433"
       font-style="normal"
       font-variant="normal"
       font-weight="normal"
       font-stretch="normal"
       font-size-adjust="none"
       letter-spacing="normal"
       word-spacing="normal"><path
         style="fill:#000000;stroke-width:0"
         inkscape:connector-curvature="0"
         d="m 461.85,410.04 5.28,5.13 c 7.76,6.87 10.76,9.56 10.76,14.54 0,5.69 -4.48,9.68 -10.56,9.68 -5.64,0 -9.33,-4.6 -9.33,-9.03 0,-2.79 2.5,-2.79 2.64,-2.79 0.86,0 2.6,0.6 2.6,2.64 0,1.3 -0.89,2.6 -2.64,2.6 -0.39,0 -0.5,0 -0.64,-0.05 1.14,3.24 3.83,5.08 6.72,5.08 4.53,0 6.68,-4.05 6.68,-8.13 0,-3.98 -2.5,-7.92 -5.23,-11.01 l -9.56,-10.66 C 458,407.5 458,407.4 458,406.2 h 18.49 l 1.4,8.67 h -1.25 c -0.25,-1.5 -0.59,-3.69 -1.09,-4.44 -0.36,-0.39 -3.64,-0.39 -4.73,-0.39 z"
         id="path3058" /></g>  </g>
  <g
     id="g3104"
     transform="matrix(0.018248,0,0,0.018248,130.9155,106.07563)">
    <g
       word-spacing="normal"
       letter-spacing="normal"
       font-size-adjust="none"
       font-stretch="normal"
       font-weight="normal"
       font-variant="normal"
       font-style="normal"
       stroke-miterlimit="10.433"
       xml:space="preserve"
       transform="matrix(14.788571,0,0,-14.788571,-2588,7914)"
       id="g3106"
       style="font-style:normal;font-variant:normal;font-weight:normal;font-stretch:normal;letter-spacing:normal;word-spacing:normal;text-anchor:start;fill:none;stroke:#000000;stroke-linecap:butt;stroke-linejoin:miter;stroke-miterlimit:10.43299961;stroke-opacity:1;stroke-dasharray:none;stroke-dashoffset:0"><path
         id="path3108"
         d="m 469.97,423.73 0.38,0.13 0.37,0.15 0.37,0.15 0.35,0.17 0.35,0.18 0.34,0.19 0.33,0.2 0.32,0.22 0.31,0.22 0.31,0.23 0.29,0.24 0.28,0.25 0.27,0.26 0.26,0.27 0.25,0.27 0.24,0.29 0.22,0.29 0.21,0.3 0.2,0.3 0.19,0.32 0.18,0.32 0.16,0.32 0.14,0.33 0.14,0.34 0.11,0.34 0.11,0.34 0.09,0.35 0.07,0.36 0.06,0.36 0.04,0.36 0.02,0.36 0.01,0.37 c 0,4.08 -4.39,6.88 -9.17,6.88 -5.03,0 -8.81,-3 -8.81,-6.78 0,-1.65 1.09,-2.6 2.54,-2.6 1.54,0 2.54,1.1 2.54,2.55 0,2.48 -2.35,2.48 -3.08,2.48 1.53,2.44 4.83,3.1 6.62,3.1 2.03,0 4.78,-1.1 4.78,-5.58 0,-0.61 -0.11,-3.49 -1.4,-5.69 -1.49,-2.39 -3.19,-2.53 -4.42,-2.59 -0.41,-0.05 -1.6,-0.14 -1.96,-0.14 -0.39,-0.05 -0.75,-0.1 -0.75,-0.6 0,-0.54 0.36,-0.54 1.21,-0.54 h 2.18 c 4.1,0 5.94,-3.39 5.94,-8.29 0,-6.76 -3.44,-8.21 -5.64,-8.21 -2.14,0 -5.88,0.84 -7.61,3.78 1.73,-0.24 3.28,0.86 3.28,2.75 0,1.79 -1.34,2.78 -2.8,2.78 -1.18,0 -2.78,-0.69 -2.78,-2.89 0,-4.53 4.63,-7.81 10.07,-7.81 6.07,0 10.61,4.53 10.61,9.6 0,4.1 -3.15,7.97 -8.32,9.02 z"
         inkscape:connector-curvature="0"
         style="fill:#000000;stroke-width:0" /></g>  </g>
  <g
     transform="matrix(0.018248,0,0,0.018248,74.539232,178.60096)"
     id="g3160">
    <g
       style="font-style:normal;font-variant:normal;font-weight:normal;font-stretch:normal;letter-spacing:normal;word-spacing:normal;text-anchor:start;fill:none;stroke:#000000;stroke-linecap:butt;stroke-linejoin:miter;stroke-miterlimit:10.43299961;stroke-opacity:1;stroke-dasharray:none;stroke-dashoffset:0"
       id="g3162"
       transform="matrix(14.788571,0,0,-14.788571,-2588,7914)"
       xml:space="preserve"
       stroke-miterlimit="10.433"
       font-style="normal"
       font-variant="normal"
       font-weight="normal"
       font-stretch="normal"
       font-size-adjust="none"
       letter-spacing="normal"
       word-spacing="normal"><path
         style="fill:#000000;stroke-width:0"
         inkscape:connector-curvature="0"
         d="m 470.16,414.42 v -4.33 c 0,-1.8 -0.09,-2.34 -3.78,-2.34 h -1.05 v -1.55 c 2.05,0.16 4.64,0.16 6.74,0.16 2.09,0 4.73,0 6.76,-0.16 v 1.55 h -1.04 c -3.69,0 -3.79,0.54 -3.79,2.34 v 4.33 h 4.99 v 1.54 H 474 v 22.68 c 0,1 0,1.29 -0.79,1.29 -0.46,0 -0.6,0 -1,-0.61 l -15.3,-23.36 h 1.41 l 12.15,18.58 v -18.58 h -12.15 -1.41 v -1.54 z"
         id="path3164" /></g>  </g>
  <g
     id="g3222"
     transform="matrix(0.018248,0,0,0.018248,-11.961888,178.35913)">
    <g
       word-spacing="normal"
       letter-spacing="normal"
       font-size-adjust="none"
       font-stretch="normal"
       font-weight="normal"
       font-variant="normal"
       font-style="normal"
       stroke-miterlimit="10.433"
       xml:space="preserve"
       transform="matrix(14.788571,0,0,-14.788571,-2588,7914)"
       id="g3224"
       style="font-style:normal;font-variant:normal;font-weight:normal;font-stretch:normal;letter-spacing:normal;word-spacing:normal;text-anchor:start;fill:none;stroke:#000000;stroke-linecap:butt;stroke-linejoin:miter;stroke-miterlimit:10.43299961;stroke-opacity:1;stroke-dasharray:none;stroke-dashoffset:0"><path
         id="path3226"
         d="m 477.89,416.21 -0.01,0.56 -0.03,0.54 -0.06,0.54 -0.08,0.53 -0.1,0.53 -0.13,0.51 -0.14,0.5 -0.17,0.5 -0.18,0.48 -0.21,0.47 -0.22,0.46 -0.24,0.44 -0.26,0.43 -0.28,0.41 -0.29,0.4 -0.31,0.38 -0.33,0.36 -0.34,0.35 -0.36,0.32 -0.37,0.31 -0.38,0.29 -0.4,0.26 -0.41,0.25 -0.42,0.22 -0.43,0.2 -0.44,0.17 -0.46,0.15 -0.46,0.13 -0.48,0.09 -0.48,0.07 -0.49,0.05 -0.5,0.01 c -2.39,0 -4.54,-0.8 -6.33,-2.53 v 9.7 c 1,-0.29 2.64,-0.64 4.23,-0.64 6.13,0 9.61,4.53 9.61,5.19 0,0.3 -0.14,0.55 -0.5,0.55 -0.05,0 -0.14,0 -0.39,-0.16 -1,-0.45 -3.44,-1.44 -6.78,-1.44 -1.98,0 -4.28,0.35 -6.63,1.39 -0.39,0.14 -0.5,0.14 -0.59,0.14 -0.5,0 -0.5,-0.39 -0.5,-1.18 v -14.75 c 0,-0.89 0,-1.3 0.7,-1.3 0.35,0 0.44,0.16 0.64,0.45 0.55,0.8 2.4,3.49 6.43,3.49 2.59,0 3.84,-2.3 4.23,-3.19 0.81,-1.84 0.91,-3.78 0.91,-6.28 0,-1.74 0,-4.74 -1.21,-6.83 -1.18,-1.94 -3.03,-3.23 -5.32,-3.23 -3.64,0 -6.47,2.64 -7.33,5.57 0.15,-0.04 0.31,-0.09 0.86,-0.09 1.64,0 2.48,1.25 2.48,2.44 0,1.2 -0.84,2.44 -2.48,2.44 -0.71,0 -2.46,-0.35 -2.46,-2.65 0,-4.28 3.44,-9.1 9.04,-9.1 5.76,0 10.85,4.78 10.85,11.1 z"
         inkscape:connector-curvature="0"
         style="fill:#000000;stroke-width:0" /></g>  </g>
  <g
     transform="matrix(0.018248,0,0,0.018248,-66.252836,106.0878)"
     id="g3290">
    <g
       style="font-style:normal;font-variant:normal;font-weight:normal;font-stretch:normal;letter-spacing:normal;word-spacing:normal;text-anchor:start;fill:none;stroke:#000000;stroke-linecap:butt;stroke-linejoin:miter;stroke-miterlimit:10.43299961;stroke-opacity:1;stroke-dasharray:none;stroke-dashoffset:0"
       id="g3292"
       transform="matrix(14.788571,0,0,-14.788571,-2588,7914)"
       xml:space="preserve"
       stroke-miterlimit="10.433"
       font-style="normal"
       font-variant="normal"
       font-weight="normal"
       font-stretch="normal"
       font-size-adjust="none"
       letter-spacing="normal"
       word-spacing="normal"><path
         style="fill:#000000;stroke-width:0"
         inkscape:connector-curvature="0"
         d="m 462.1,422.54 v 1.19 c 0,12.61 6.17,14.41 8.72,14.41 1.18,0 3.28,-0.3 4.37,-2 -0.73,0 -2.73,0 -2.73,-2.24 0,-1.54 1.2,-2.29 2.29,-2.29 0.8,0 2.29,0.45 2.29,2.39 0,3 -2.19,5.39 -6.32,5.39 -6.39,0 -13.11,-6.44 -13.11,-17.44 0,-13.31 5.78,-16.84 10.41,-16.84 5.53,0 10.27,4.68 10.27,11.25 0,6.32 -4.44,11.12 -9.97,11.12 l -0.05,-1.16 c 0.8,0 3.09,0 4.64,-3.09 0.89,-1.83 0.89,-4.37 0.89,-6.81 0,-2.39 0,-4.89 -0.84,-6.69 -1.5,-2.98 -3.78,-3.23 -4.94,-3.23 h 0 c -3.14,0 -4.63,2.98 -4.92,3.73 -0.91,2.34 -0.91,6.33 -0.91,7.23 0,3.88 1.6,8.86 6.08,8.86 l 0.05,1.16 c -3.38,0 -5.22,-2.55 -6.22,-4.94 z"
         id="path3294" /></g>  </g>
  <g
     id="g3364"
     transform="matrix(0.018248,0,0,0.018248,-46.645918,21.863762)">
    <g
       word-spacing="normal"
       letter-spacing="normal"
       font-size-adjust="none"
       font-stretch="normal"
       font-weight="normal"
       font-variant="normal"
       font-style="normal"
       stroke-miterlimit="10.433"
       xml:space="preserve"
       transform="matrix(14.788571,0,0,-14.788571,-2588,7914)"
       id="g3366"
       style="font-style:normal;font-variant:normal;font-weight:normal;font-stretch:normal;letter-spacing:normal;word-spacing:normal;text-anchor:start;fill:none;stroke:#000000;stroke-linecap:butt;stroke-linejoin:miter;stroke-miterlimit:10.43299961;stroke-opacity:1;stroke-dasharray:none;stroke-dashoffset:0"><path
         id="path3368"
         d="m 479.24,436.54 0.04,0.06 0.04,0.05 0.03,0.05 0.03,0.05 0.03,0.04 0.03,0.04 0.03,0.05 0.02,0.04 0.02,0.04 0.02,0.04 0.02,0.04 0.02,0.04 0.01,0.04 0.02,0.04 0.01,0.04 0.01,0.04 0.01,0.04 0.01,0.05 0.01,0.05 0,0.04 0.01,0.06 0,0.05 0.01,0.06 0,0.06 0,0.06 0,0.07 0,0.07 0.01,0.08 0,0.08 0,0.08 0,0.09 0,0.05 0,0.05 h -12.1 c -6.08,0 -6.19,0.65 -6.39,1.59 h -1.23 l -1.64,-10.25 h 1.23 c 0.16,0.8 0.61,3.94 1.25,4.53 0.34,0.3 4.24,0.3 4.88,0.3 H 476 c -0.56,-0.8 -4.48,-6.24 -5.59,-7.88 -4.48,-6.71 -6.12,-13.65 -6.12,-18.73 0,-0.5 0,-2.73 2.29,-2.73 2.3,0 2.3,2.23 2.3,2.73 v 2.55 c 0,2.73 0.14,5.48 0.55,8.17 0.18,1.14 0.89,5.42 3.07,8.51 z"
         inkscape:connector-curvature="0"
         style="fill:#000000;stroke-width:0" /></g>  </g>
</svg>
