<?xml version="1.0" encoding="UTF-8" standalone="no"?>
<!-- Created with Inkscape (http://www.inkscape.org/) -->

<svg
   xmlns:dc="http://purl.org/dc/elements/1.1/"
   xmlns:cc="http://creativecommons.org/ns#"
   xmlns:rdf="http://www.w3.org/1999/02/22-rdf-syntax-ns#"
   xmlns:svg="http://www.w3.org/2000/svg"
   xmlns="http://www.w3.org/2000/svg"
   xmlns:xlink="http://www.w3.org/1999/xlink"
   xmlns:sodipodi="http://sodipodi.sourceforge.net/DTD/sodipodi-0.dtd"
   xmlns:inkscape="http://www.inkscape.org/namespaces/inkscape"
   width="682.0365"
   height="418.15833"
   id="svg2"
   version="1.1"
   inkscape:version="0.48.4 r9939"
   sodipodi:docname="inversa-gen.svg">
  <sodipodi:namedview
     id="base"
     pagecolor="#ffffff"
     bordercolor="#666666"
     borderopacity="1.0"
     inkscape:pageopacity="0.0"
     inkscape:pageshadow="2"
     inkscape:zoom="1.4142136"
     inkscape:cx="224.0251"
     inkscape:cy="269.01713"
     inkscape:document-units="px"
     inkscape:current-layer="layer1"
     showgrid="false"
     inkscape:window-width="1366"
     inkscape:window-height="744"
     inkscape:window-x="0"
     inkscape:window-y="24"
     inkscape:window-maximized="1"
     fit-margin-top="0"
     fit-margin-left="0"
     fit-margin-right="0"
     fit-margin-bottom="0" />
  <defs
     id="defs4">
    <linearGradient
       id="linearGradient3867"
       inkscape:collect="always">
      <stop
         id="stop3869"
         offset="0"
         style="stop-color:#000002;stop-opacity:1;" />
      <stop
         id="stop3871"
         offset="1"
         style="stop-color:#000002;stop-opacity:0;" />
    </linearGradient>
    <marker
       inkscape:stockid="Arrow1Lend"
       orient="auto"
       refY="0"
       refX="0"
       id="Arrow1Lend"
       style="overflow:visible">
      <path
         inkscape:connector-curvature="0"
         id="path3808"
         d="M 0,0 5,-5 -12.5,0 5,5 0,0 z"
         style="fill-rule:evenodd;stroke:#000000;stroke-width:1pt"
         transform="matrix(-0.8,0,0,-0.8,-10,0)" />
    </marker>
    <marker
       inkscape:stockid="Arrow1Lstart"
       orient="auto"
       refY="0"
       refX="0"
       id="Arrow1Lstart"
       style="overflow:visible">
      <path
         inkscape:connector-curvature="0"
         id="path3805"
         d="M 0,0 5,-5 -12.5,0 5,5 0,0 z"
         style="fill-rule:evenodd;stroke:#000000;stroke-width:1pt"
         transform="matrix(0.8,0,0,0.8,10,0)" />
    </marker>
    <linearGradient
       gradientTransform="matrix(0.7369739,0,0,1.0140966,-503.51574,104.8315)"
       gradientUnits="userSpaceOnUse"
       y2="89.267128"
       x2="587.42143"
       y1="89.267128"
       x1="267.15459"
       id="linearGradient3873"
       xlink:href="#linearGradient3867"
       inkscape:collect="always" />
    <linearGradient
       gradientTransform="translate(-41.012193,33.941126)"
       gradientUnits="userSpaceOnUse"
       y2="89.267128"
       x2="587.42145"
       y1="89.267128"
       x1="267.1546"
       id="linearGradient3873-2"
       xlink:href="#linearGradient3867-8"
       inkscape:collect="always" />
    <linearGradient
       id="linearGradient3867-8"
       inkscape:collect="always">
      <stop
         id="stop3869-7"
         offset="0"
         style="stop-color:#000002;stop-opacity:1;" />
      <stop
         id="stop3871-9"
         offset="1"
         style="stop-color:#000002;stop-opacity:0;" />
    </linearGradient>
    <linearGradient
       inkscape:collect="always"
       xlink:href="#linearGradient3867-8"
       id="linearGradient3890"
       gradientUnits="userSpaceOnUse"
       gradientTransform="matrix(0.95800096,0,0,1.0021012,137.09318,310.93941)"
       x1="267.1546"
       y1="89.267128"
       x2="587.42145"
       y2="89.267128" />
  </defs>
  <metadata
     id="metadata7">
    <rdf:RDF>
      <cc:Work
         rdf:about="">
        <dc:format>image/svg+xml</dc:format>
        <dc:type
           rdf:resource="http://purl.org/dc/dcmitype/StillImage" />
        <dc:title />
      </cc:Work>
    </rdf:RDF>
  </metadata>
  <g
     transform="translate(-34.84375,-59.31043)"
     inkscape:label="Layer 1"
     inkscape:groupmode="layer"
     id="layer1">
    <path
       style="fill:none;stroke:#000000;stroke-width:1;stroke-linecap:butt;stroke-linejoin:miter;stroke-miterlimit:4;stroke-opacity:1;stroke-dasharray:none;marker-start:url(#Arrow1Lstart)"
       d="m 195.86729,61.13543 c 0,422.82129 -1.01015,415.84001 -1.01015,415.84001"
       id="path3029"
       inkscape:connector-curvature="0"
       sodipodi:nodetypes="cc" />
    <path
       style="fill:none;stroke:#000000;stroke-width:1px;stroke-linecap:butt;stroke-linejoin:miter;stroke-opacity:1;marker-end:url(#Arrow1Lend)"
       d="m 34.857143,401.21933 c 674.285717,0 675.714287,0 675.714287,0"
       id="path3031"
       inkscape:connector-curvature="0" />
    <path
       style="fill:none;stroke:#000000;stroke-width:1;stroke-linecap:butt;stroke-linejoin:miter;stroke-miterlimit:4;stroke-opacity:1;stroke-dasharray:8, 4;stroke-dashoffset:0;opacity:0.49152542"
       d="m 392,399.79075 0,-118.57142 -197.14286,0"
       id="path4981"
       inkscape:connector-curvature="0" />
    <path
       style="fill:none;stroke:#000000;stroke-width:1;stroke-linecap:butt;stroke-linejoin:miter;stroke-miterlimit:4;stroke-opacity:1;stroke-dasharray:8, 4;stroke-dashoffset:0;opacity:0.50508475"
       d="m 392,306.93361 -198.57143,0"
       id="path4983"
       inkscape:connector-curvature="0" />
    <path
       style="fill:none;stroke:#fd0000;stroke-width:0.65490401;stroke-linecap:butt;stroke-linejoin:miter;stroke-miterlimit:4;stroke-opacity:1;stroke-dasharray:none"
       d="m 399.64106,396.29108 c 0,0 -4.96231,6.68965 -0.17475,8.72631 0.66699,0.28374 2.14661,0.25469 2.80141,-0.0344 4.80415,-2.12062 -4.85864,-6.92464 0.22393,-8.91938 0.7508,-0.29465 2.3343,-0.20375 3.02533,0.11726 4.74008,2.20202 -4.71027,7.01131 0.43145,9.03664 0.88253,0.34764 2.75779,0.26289 3.56595,-0.11726 4.72527,-2.22277 -5.08674,-6.95438 -0.10916,-9.07098 0.90245,-0.38375 2.89096,-0.34386 3.78986,0.0415 4.98014,2.13473 -4.49194,7.10727 0.78093,9.10533 0.98422,0.37296 3.02358,0.25398 3.90183,-0.16583 4.65534,-2.22532 -5.11364,-6.99593 0.0164,-9.0153 0.9399,-0.36999 2.92869,-0.24572 3.78986,0.15872 4.68687,2.20107 -4.4574,6.83744 0.3523,8.98806 0.85844,0.38385 2.79637,0.44226 3.69429,0.0758 5.05387,-2.06254 -4.42525,-6.81989 0.28669,-9.02952 0.86522,-0.40573 2.84863,-0.51617 3.80627,-0.1516 5.05922,1.92603 -3.99858,6.69745 0.78093,8.75354 0.74679,0.32126 2.39185,0.356 3.15369,0.0415 4.80787,-1.98497 -4.29253,-6.59237 0.38226,-8.63628 0.83047,-0.3631 2.68287,-0.39455 3.53596,-0.0415 5.01689,2.07648 -4.68186,6.98294 0.41507,9.02241 1.09049,0.43635 3.4426,0.35821 4.44243,-0.11727 4.61362,-2.19406 -5.40134,-6.7729 -0.63618,-8.90514 0.99401,-0.44479 3.26702,-0.43487 4.28409,0 4.96074,2.12104 -4.8278,7.02043 0.30309,9.06386 0.93698,0.37317 2.935,0.28476 3.80628,-0.11726 4.71276,-2.17453 -4.52672,-6.78125 0.19112,-8.95372 0.89773,-0.41338 2.94467,-0.49697 3.91822,-0.11726 5.08039,1.98151 -3.97767,6.7516 0.76453,8.88503 0.7982,0.3591 2.59455,0.44809 3.44039,0.11015 4.99458,-1.99546 -4.70924,-6.79014 0.17475,-8.83646 0.87493,-0.36659 2.78654,-0.33113 3.6479,0.0415 4.7875,2.07087 -4.45667,6.84328 0.58981,8.79499 0.83528,0.32305 2.58261,0.23106 3.34482,-0.12437 4.59604,-2.14314 -4.47832,-6.70118 0.2703,-8.78077 0.98282,-0.43041 3.17834,-0.45979 4.18853,-0.0415 5.03519,2.0851 -4.60762,7.00237 0.49423,9.05675 0.84159,0.33889 2.64738,0.28446 3.44038,-0.0758 4.7658,-2.1651 -4.78505,-6.86452 0.0956,-8.98094 0.91986,-0.39889 2.98299,-0.40646 3.90182,-0.007 4.8829,2.12218 -5.11762,6.92136 -0.12553,8.99518 0.93259,0.38742 2.96163,0.31561 3.86902,-0.0829 4.838,-2.12485 -4.24932,-6.90704 0.76453,-8.95372 0.80824,-0.32993 2.53988,-0.30442 3.32843,0.0344 4.95911,2.13049 -4.43802,7.0298 0.70176,9.0781 0.91612,0.36509 2.86016,0.30411 3.72709,-0.0829 4.75134,-2.12117 -4.16716,-6.69915 0.46145,-8.8708 0.82225,-0.3858 2.69804,-0.50193 3.61511,-0.15871 5.30307,1.98472 -4.15218,7.03409 0.97207,9.10533 0.79268,0.32039 2.48722,0.29974 3.24927,-0.0344 4.86196,-2.13153 -4.38287,-6.78418 0.2867,-8.99518 0.77869,-0.3687 2.57424,-0.48157 3.44039,-0.1516 5.21535,1.98684 -4.1358,6.82412 0.58979,9.02952 0.82092,0.38312 2.69316,0.50408 3.59873,0.15872 5.28454,-2.01537 -4.66344,-7.11523 0.5734,-9.1539 0.88011,-0.34263 2.73327,-0.25233 3.53595,0.12437 4.72749,2.21862 -5.00672,6.98599 0.0491,9.06387 0.89516,0.3679 2.83705,0.3016 3.69429,-0.0829 4.83877,-2.1704 -4.69422,-6.99109 0.38227,-9.05676 0.93034,-0.37856 2.92042,-0.31535 3.82266,0.0758 4.86766,2.11034 -3.96807,6.8609 0.95566,8.94661 0.83959,0.35566 2.67455,0.38759 3.51956,0.0344 4.99654,-2.08871 -4.6503,-6.92156 0.3031,-9.02952 0.8375,-0.35641 2.68905,-0.35238 3.51955,0.007 4.95669,2.14547 -4.99587,7.05005 0.14477,9.11244 0.92982,0.37304 2.91408,0.27963 3.78986,-0.11726 4.80326,-2.17679 -4.47039,-6.96477 0.5734,-9.03664 0.85616,-0.35169 2.71451,-0.32548 3.53595,0.0415 4.81531,2.15096 -4.69224,6.77517 -0.0463,8.99517 0.87076,0.41608 2.89518,0.52931 3.86904,0.15872 5.26717,-2.00434 -4.348,-7.0341 0.76453,-9.11243 0.8139,-0.33087 2.5631,-0.3037 3.34482,0.0415 4.7812,2.11103 -4.40588,6.70431 0.22393,8.87792 0.92221,0.43296 3.04635,0.55124 4.06017,0.15871 5.20558,-2.01549 -4.35627,-6.90226 0.49422,-9.07809 0.77634,-0.34826 2.51553,-0.40739 3.34482,-0.0829 5.14613,2.01347 -4.12573,6.96524 0.95566,9.00941 0.79453,0.31962 2.48376,0.29122 3.24927,-0.0415 4.88869,-2.12456 -4.56034,-6.98945 0.57339,-9.00229 0.96752,-0.37935 3.01373,-0.28991 3.90184,0.12437 4.6238,2.15694 -4.85103,6.78286 0.0164,8.83646 0.84526,0.35662 2.70029,0.31939 3.53595,-0.0415 4.87074,-2.10322 -4.36443,-6.902 0.65258,-8.93949 0.79513,-0.32293 2.50161,-0.28819 3.26565,0.0486 4.86002,2.14209 -4.43234,6.85399 0.38227,9.0153 0.84237,0.37814 2.73511,0.4369 3.63152,0.0829 5.04076,-1.99059 -3.58659,-6.61636 0.8437,-8.86369 0.70397,-0.35711 2.34739,-0.5731 3.18649,-0.27599 5.30947,1.87999 -4.71278,6.80075 0.0956,8.91938 0.91651,0.40383 2.97496,0.42641 3.91822,0.0344 4.92683,-2.04787 -4.60069,-6.89311 0.46142,-8.87792 0.85342,-0.33461 2.65313,-0.24659 3.4404,0.11726 4.56762,2.111 -4.39674,6.62919 0.3031,8.68485 0.961,0.42033 3.11412,0.45399 4.09296,0.0415 4.80542,-2.02524 -4.35583,-6.55336 0.11195,-8.71919 0.85185,-0.41295 2.8478,-0.5594 3.80627,-0.19306 5.2259,1.99736 -4.90891,7.01385 0.20752,9.06386 0.95373,0.38213 3.00353,0.29606 3.88543,-0.11726 4.62656,-2.16833 -4.85383,-6.72343 -0.15833,-8.86369 0.96337,-0.43912 3.16891,-0.49034 4.18852,-0.0758 5.02127,2.04145 -4.25103,6.78485 0.47784,8.95373 0.78672,0.36082 2.5775,0.45166 3.42399,0.11725 5.08727,-2.00973 -4.52628,-6.8276 0.30308,-8.95371 0.76053,-0.33483 2.45806,-0.36263 3.24927,-0.0415 5.02709,2.04056 -4.19287,6.88131 0.76453,8.95372 0.71109,0.29726 2.25603,0.2993 2.96255,0 4.96526,-2.10346 -4.67748,-7.02187 0.49423,-9.02953 1.04439,-0.40543 3.22972,-0.28472 4.18854,0.15872 4.70426,2.17567 -4.66491,6.96647 0.47782,8.94661 0.95327,0.36705 2.95324,0.25214 3.80626,-0.15872 4.54052,-2.18694 -4.78203,-6.66885 -0.17473,-8.82935 0.88534,-0.41516 2.94423,-0.50106 3.90182,-0.11726 5.12375,2.05357 -4.93802,7.03482 0.20753,9.07809 0.84853,0.33695 2.65154,0.24595 3.4404,-0.11725 4.61707,-2.12578 -4.09321,-6.57863 0.38226,-8.76066 0.73028,-0.35605 2.42857,-0.50173 3.26565,-0.19307 5.36118,1.97683 -4.61049,7.0823 0.557,9.15391 0.81595,0.3271 2.54677,0.26669 3.32844,-0.0758 4.84095,-2.12114 -4.34876,-7.00463 0.87651,-8.94661 0.83181,-0.30915 2.53387,-0.19487 3.26561,0.15872 4.51092,2.17979 -4.70485,6.7206 0.0791,8.78789 0.87629,0.37868 2.82309,0.3737 3.71066,0 4.84776,-2.04103 -4.03604,-6.65885 0.60619,-8.78789 0.72505,-0.33252 2.37028,-0.42383 3.15372,-0.11726 5.19588,2.03321 -4.55607,6.94764 0.36584,9.10532 0.80314,0.35208 2.5806,0.37534 3.42403,0.0415 5.19384,-2.05615 -4.01577,-7.15505 1.33792,-9.13255 0.71083,-0.26257 2.15739,-0.18148 2.78783,0.11725 4.65985,2.2082 -5.0158,7.00807 0.17473,8.98096 0.87329,0.33194 2.66784,0.1836 3.45678,-0.18595 4.63294,-2.17006 -3.58227,-6.65619 0.95566,-8.86369 0.74812,-0.36392 2.47865,-0.55368 3.32845,-0.23452 5.31431,1.99593 -5.29301,6.97192 -0.3659,9.14678 0.62904,0.27767 2.02183,0.2588 2.69224,0 5.28611,-2.04066 -4.09915,-8.00099 2.46554,-9.14678 0.22433,-0.0392 0.45965,0.10468 0.55978,0.20018 2.80864,2.67766 -0.557,8.82223 -0.557,8.82223"
       id="path3007"
       inkscape:connector-curvature="0"
       sodipodi:nodetypes="caaaaaaaaaaaaaaaaaaaaaaaaaaaaaaaaaaaaaaaaaaaaaaaaaaaaaaaaaaaaaaaaaaaaaaaaaaaaaaaaaaaaaaaaaaaaaaaaaaaaaaaaaaaaaaaaaaaaaaaaaaaaaaaaaaaaaaaac" />
    <path
       style="fill:none;stroke:#0000fd;stroke-width:0.65499997;stroke-linecap:butt;stroke-linejoin:miter;stroke-miterlimit:4;stroke-opacity:1;stroke-dasharray:none"
       d="m 199.80716,109.57249 c 0,0 -6.08139,-3.60847 -7.93286,-0.12707 -0.25795,0.48502 -0.23154,1.56096 0.0312,2.03712 1.9278,3.49347 6.29501,-3.53309 8.10836,0.16283 0.26787,0.54597 0.18523,1.69745 -0.10659,2.19995 -2.0018,3.44688 -6.37379,-3.42519 -8.21497,0.31374 -0.31602,0.64176 -0.23898,2.00541 0.1066,2.59308 2.02066,3.4361 6.32204,-3.69896 8.24619,-0.0794 0.34886,0.65624 0.31259,2.10224 -0.0377,2.7559 -1.94063,3.62144 -6.46103,-3.26643 -8.27741,0.56787 -0.33905,0.71571 -0.2309,2.19868 0.15075,2.83732 2.02297,3.38526 6.3598,-3.71852 8.19556,0.0119 0.33635,0.68348 0.22338,2.12969 -0.14428,2.75591 -2.00094,3.40818 -6.21573,-3.24132 -8.17081,0.25618 -0.34895,0.62424 -0.40204,2.03346 -0.0689,2.6864 1.875,3.67505 6.19977,-3.21794 8.20849,0.20848 0.36885,0.62916 0.46924,2.07145 0.13782,2.76783 -1.7509,3.67895 -6.08847,-2.90768 -7.9576,0.56787 -0.29205,0.54305 -0.32363,1.73929 -0.0377,2.29329 1.80448,3.49617 5.99294,-3.12143 7.85101,0.27797 0.33008,0.6039 0.35867,1.95092 0.0377,2.57127 -1.88768,3.64816 -6.34801,-3.40455 -8.20203,0.30183 -0.39668,0.79298 -0.32565,2.50338 0.1066,3.23043 1.99456,3.35491 6.15706,-3.92773 8.09543,-0.46261 0.40434,0.72281 0.39532,2.37569 0,3.11529 -1.92819,3.60732 -6.38208,-3.51067 -8.23972,0.2204 -0.33923,0.68135 -0.25886,2.13426 0.1066,2.76783 1.97681,3.42701 6.16465,-3.29173 8.13958,0.13897 0.3758,0.65282 0.45179,2.1413 0.1066,2.84925 -1.80133,3.69434 -6.13769,-2.89247 -8.07714,0.55594 -0.32645,0.58044 -0.40735,1.8867 -0.10013,2.50178 1.81402,3.63194 6.17273,-3.42445 8.03298,0.12707 0.33326,0.63624 0.30103,2.02631 -0.0377,2.65267 -1.88258,3.48136 -6.22105,-3.24078 -7.99529,0.4289 -0.29368,0.6074 -0.21005,1.87801 0.11306,2.43227 1.94826,3.34213 6.09186,-3.25652 7.98236,0.19656 0.39128,0.71468 0.41797,2.31122 0.0377,3.04581 -1.8955,3.66146 -6.36566,-3.35056 -8.23325,0.35938 -0.30807,0.612 -0.2586,1.92511 0.0689,2.50177 1.96824,3.46558 6.24035,-3.47958 8.16433,0.0695 0.36262,0.6689 0.36951,2.16916 0.006,2.83732 -1.92922,3.55072 -6.29202,-3.72142 -8.17728,-0.0913 -0.35219,0.67816 -0.28691,2.15363 0.0754,2.81347 1.93165,3.51808 6.279,-3.09001 8.13958,0.55593 0.29993,0.58774 0.27674,1.84695 -0.0313,2.42036 -1.93676,3.60616 -6.39059,-3.22722 -8.25265,0.51031 -0.33189,0.66618 -0.27646,2.07984 0.0754,2.71025 1.9283,3.45507 6.09001,-3.03026 8.06421,0.33555 0.35071,0.59793 0.45629,1.96196 0.14428,2.62884 -1.80427,3.85626 -6.39451,-3.01938 -8.27741,0.70686 -0.29127,0.57642 -0.27249,1.80865 0.0313,2.36279 1.93771,3.53551 6.16731,-3.18712 8.17727,0.20848 0.33518,0.56625 0.43778,1.87194 0.13782,2.50177 -1.80618,3.79249 -6.20363,-3.00745 -8.2085,0.42889 -0.34828,0.59695 -0.45824,1.9584 -0.14429,2.61691 1.83212,3.8428 6.46827,-3.39115 8.32156,0.41696 0.31148,0.63999 0.22939,1.98757 -0.11306,2.57126 -2.01688,3.43772 -6.35077,-3.64077 -8.23972,0.0357 -0.33444,0.65094 -0.27417,2.06304 0.0754,2.6864 1.97305,3.51864 6.35541,-3.41353 8.23325,0.27798 0.34415,0.67652 0.28668,2.12366 -0.0689,2.77975 -1.91844,3.53965 -6.23705,-2.8855 -8.13312,0.69493 -0.32331,0.61054 -0.35234,1.94487 -0.0312,2.55935 1.89879,3.63336 6.2922,-3.3816 8.20849,0.2204 0.324,0.60901 0.32034,1.95542 -0.006,2.55934 -1.95039,3.60439 -6.40901,-3.63288 -8.28388,0.10527 -0.33912,0.67614 -0.2542,2.11905 0.10661,2.7559 1.97886,3.49282 6.33148,-3.25077 8.21496,0.41696 0.31971,0.62258 0.29588,1.97393 -0.0377,2.57126 -1.95539,3.50158 -6.15913,-3.41209 -8.17727,-0.0336 -0.37825,0.63318 -0.48119,2.1053 -0.14429,2.81346 1.82209,3.83016 6.39451,-3.16176 8.28386,0.55596 0.30079,0.59184 0.27609,1.86382 -0.0377,2.43227 -1.91908,3.47678 -6.09471,-3.20386 -8.07068,0.16284 -0.39359,0.67061 -0.50112,2.21524 -0.14428,2.95246 1.83223,3.78538 6.27465,-3.16778 8.25264,0.35938 0.31659,0.56455 0.37035,1.82924 0.0754,2.43228 -1.83039,3.74215 -6.33191,-3.00014 -8.19021,0.69494 -0.29056,0.57776 -0.26474,1.80613 0.0377,2.36279 1.93138,3.55494 6.35391,-3.31617 8.18374,0.41696 0.34485,0.70355 0.26355,2.19151 -0.11307,2.83732 -1.96081,3.36232 -6.16611,-3.52756 -8.03298,0.0119 -0.3242,0.61465 -0.29035,1.96358 0.0377,2.57126 1.91198,3.54188 6.27443,-3.17371 8.12665,0.47454 0.29356,0.5782 0.26198,1.81911 -0.0442,2.3747 -1.94732,3.5341 -6.23078,-3.22309 -8.19556,0.27798 -0.34376,0.61255 -0.39718,1.9889 -0.0754,2.64075 1.80958,3.66554 6.01475,-2.60808 8.05774,0.61352 0.32463,0.51191 0.52098,1.70697 0.25089,2.31714 -1.70904,3.86092 -6.18238,-3.42702 -8.10837,0.0695 -0.36711,0.66647 -0.38764,2.16334 -0.0313,2.84924 1.86166,3.58268 6.26634,-3.3455 8.07068,0.33554 0.30419,0.62059 0.22417,1.9293 -0.10661,2.50178 -1.91905,3.32146 -6.02641,-3.1972 -7.89516,0.22041 -0.38211,0.69881 -0.41271,2.26452 -0.0377,2.9763 1.8411,3.49439 5.95749,-3.16745 7.92639,0.0814 0.3754,0.61943 0.50854,2.07085 0.17551,2.76781 -1.81575,3.80017 -6.3761,-3.56964 -8.23971,0.15091 -0.34738,0.69353 -0.26914,2.1841 0.10659,2.8254 1.97117,3.36432 6.11209,-3.52959 8.05774,-0.11514 0.3992,0.70054 0.44576,2.30436 0.0689,3.0458 -1.85583,3.65135 -6.16792,-3.09125 -8.13959,0.34747 -0.32802,0.57208 -0.4106,1.8743 -0.10659,2.48985 1.82699,3.69934 6.20678,-3.2914 8.13958,0.2204 0.30438,0.55303 0.32965,1.78743 0.0377,2.36278 -1.85501,3.65559 -6.25561,-3.04896 -8.13958,0.55595 -0.27023,0.51708 -0.27209,1.64054 0,2.1543 1.9122,3.61062 6.38339,-3.40135 8.2085,0.35939 0.36856,0.75946 0.25883,2.34858 -0.14429,3.04581 -1.97784,3.42083 -6.33302,-3.39222 -8.13312,0.34746 -0.33367,0.6932 -0.22921,2.14752 0.14429,2.76783 1.98809,3.30175 6.06248,-3.47739 8.02652,-0.12707 0.37741,0.64381 0.4555,2.14098 0.1066,2.83732 -1.86685,3.72587 -6.39517,-3.59082 -8.25265,0.15091 -0.30631,0.61703 -0.22358,1.92814 0.10659,2.50178 1.93249,3.35742 5.98046,-2.97649 7.96408,0.27797 0.32368,0.53104 0.45611,1.766 0.17551,2.3747 -1.79708,3.89852 -6.43832,-3.35264 -8.32156,0.40505 -0.29737,0.59333 -0.24244,1.85194 0.0689,2.42035 1.92826,3.52023 6.36771,-3.16232 8.13311,0.63738 0.28104,0.60487 0.17716,1.84257 -0.14428,2.37468 -1.98159,3.28024 -6.10952,-3.42126 -7.98883,0.0575 -0.34426,0.63721 -0.33973,2.05288 0,2.69831 1.85543,3.52517 6.05338,-2.93492 7.98883,0.4408 0.30228,0.52724 0.38529,1.72361 0.10659,2.29331 -1.84834,3.77833 -6.31591,-3.31307 -8.2774,0.26603 -0.32007,0.58403 -0.34121,1.87655 -0.0377,2.48988 1.8692,3.77684 6.50448,-2.92018 8.30217,0.9729 0.23869,0.5169 0.16498,1.56881 -0.1066,2.02725 -2.00741,3.38853 -6.37084,-3.64738 -8.16434,0.12706 -0.30176,0.63503 -0.16691,1.93999 0.16904,2.51368 1.97274,3.36898 6.05096,-2.60494 8.05774,0.69494 0.33083,0.54401 0.50334,1.80242 0.2132,2.42037 -1.81445,3.86444 -6.33799,-3.84896 -8.3151,-0.26607 -0.25241,0.45742 -0.23527,1.47023 0,1.95772 1.85511,3.84395 7.27349,-2.98079 8.3151,1.7929 0.0356,0.16313 -0.0952,0.33424 -0.18198,0.40705 -2.43419,2.04238 -8.02005,-0.40503 -8.02005,-0.40503"
       id="path3007-7"
       inkscape:connector-curvature="0"
       sodipodi:nodetypes="caaaaaaaaaaaaaaaaaaaaaaaaaaaaaaaaaaaaaaaaaaaaaaaaaaaaaaaaaaaaaaaaaaaaaaaaaaaaaaaaaaaaaaaaaaaaaaaaaaaaaaaaaaaaaaaaaaaaaaaaaaaaaaaaaaaaaaaac" />
    <path
       style="fill:none;stroke:#000000;stroke-width:1.79999995;stroke-linecap:butt;stroke-linejoin:miter;stroke-miterlimit:4;stroke-opacity:1;stroke-dasharray:none"
       d="m 44.857143,395.50504 c 0,0 46.688697,-0.30856 69.999997,-1.42857 31.48232,-1.51261 63.10173,-2.56218 94.28572,-7.14286 39.55287,-5.81 79.56854,-12.06301 117.14285,-25.71428 C 349.5075,352.78253 392,326.93361 392,326.93361"
       id="path5021"
       inkscape:connector-curvature="0"
       sodipodi:nodetypes="caaac" />
    <path
       style="fill:none;stroke:#000000;stroke-width:1.79999995;stroke-linecap:butt;stroke-linejoin:miter;stroke-miterlimit:4;stroke-opacity:1;stroke-dasharray:none"
       d="m 390.57143,281.21933 c 0,0 26.20933,-41.01834 42.85714,-58.57143 20.72753,-21.85465 44.70875,-40.78411 70,-57.14286 22.35174,-14.45741 46.67567,-25.92091 71.42857,-35.71429 26.33784,-10.42045 81.42857,-24.28571 81.42857,-24.28571"
       id="path5023"
       inkscape:connector-curvature="0"
       sodipodi:nodetypes="caaac" />
    <path
       sodipodi:type="arc"
       style="fill:#000000;fill-opacity:1;fill-rule:nonzero;stroke:#000003;stroke-width:0.40000001;stroke-miterlimit:4;stroke-opacity:1;stroke-dasharray:none;stroke-dashoffset:0"
       id="path5025"
       sodipodi:cx="255.71428"
       sodipodi:cy="708.07648"
       sodipodi:rx="4.2857141"
       sodipodi:ry="4.2857141"
       d="m 259.99999,708.07648 c 0,2.36693 -1.91878,4.28571 -4.28571,4.28571 -2.36694,0 -4.28571,-1.91878 -4.28571,-4.28571 0,-2.36694 1.91877,-4.28572 4.28571,-4.28572 2.36693,0 4.28571,1.91878 4.28571,4.28572 z"
       transform="translate(135.23595,-426.62627)" />
    <path
       sodipodi:type="arc"
       style="fill:#ffffff;fill-opacity:1;stroke:#000002;stroke-width:0.40000001;stroke-miterlimit:4;stroke-opacity:1;stroke-dasharray:none;stroke-dashoffset:0"
       id="path5025-2"
       sodipodi:cx="255.71428"
       sodipodi:cy="708.07648"
       sodipodi:rx="4.2857141"
       sodipodi:ry="4.2857141"
       d="m 259.99999,708.07648 c 0,2.36693 -1.91878,4.28571 -4.28571,4.28571 -2.36694,0 -4.28571,-1.91878 -4.28571,-4.28571 0,-2.36694 1.91877,-4.28572 4.28571,-4.28572 2.36693,0 4.28571,1.91878 4.28571,4.28572 z"
       transform="translate(136.11485,-380.62824)" />
    <g
       id="g5084"
       transform="matrix(0.43870216,0,0,0.43870216,337.4714,-9.15578)">
      <g
         id="content"
         transform="matrix(1.0629921,0,0,-1.0629921,-186.02362,789.27165)"
         xml:space="preserve"
         stroke-miterlimit="10.433"
         font-style="normal"
         font-variant="normal"
         font-weight="normal"
         font-stretch="normal"
         font-size-adjust="none"
         letter-spacing="normal"
         word-spacing="normal"
         style="font-style:normal;font-variant:normal;font-weight:normal;font-stretch:normal;letter-spacing:normal;word-spacing:normal;text-anchor:start;fill:none;stroke:#000000;stroke-linecap:butt;stroke-linejoin:miter;stroke-miterlimit:10.43299961;stroke-opacity:1;stroke-dasharray:none;stroke-dashoffset:0"><path
           d="m 470.61,422.39 h 4.83 c 3.75,0 4.14,-0.8 4.14,-2.24 0,-0.36 0,-0.95 -0.34,-2.44 -0.11,-0.25 -0.16,-0.45 -0.16,-0.56 0,-0.39 0.3,-0.59 0.6,-0.59 0.5,0 0.5,0.15 0.75,1.05 l 2.75,10.81 c 0.14,0.54 0.14,0.65 0.14,0.79 0,0.1 -0.1,0.55 -0.6,0.55 -0.5,0 -0.54,-0.25 -0.75,-1.05 -1.04,-3.87 -2.18,-4.78 -6.42,-4.78 h -4.53 l 3.19,12.66 c 0.43,1.75 0.5,1.94 2.68,1.94 h 6.58 c 6.13,0 7.27,-1.64 7.27,-5.47 0,-1.16 0,-1.35 -0.14,-2.7 -0.11,-0.65 -0.11,-0.74 -0.11,-0.9 0,-0.25 0.15,-0.59 0.61,-0.59 0.54,0 0.59,0.3 0.69,1.25 l 1,8.61 c 0.15,1.34 -0.1,1.34 -1.35,1.34 h -24.4 c -1,0 -1.5,0 -1.5,-1 0,-0.54 0.45,-0.54 1.39,-0.54 1.84,0 3.23,0 3.23,-0.89 0,-0.21 0,-0.3 -0.25,-1.21 l -6.56,-26.34 c -0.5,-1.95 -0.61,-2.34 -4.55,-2.34 -0.84,0 -1.39,0 -1.39,-0.96 0,-0.59 0.59,-0.59 0.75,-0.59 1.44,0 5.13,0.16 6.58,0.16 1.64,0 5.78,-0.16 7.42,-0.16 0.45,0 1.05,0 1.05,0.95 0,0.39 -0.3,0.49 -0.3,0.55 -0.16,0.05 -0.25,0.05 -1.39,0.05 -1.11,0 -1.36,0 -2.59,0.09 -1.46,0.16 -1.6,0.36 -1.6,1 0,0.09 0,0.41 0.19,1.14 z"
           id="path5087"
           inkscape:connector-curvature="0"
           style="fill:#000000;stroke-width:0" /><path
           d="m 511,394.25 0,0.02 0,0.03 0,0.01 0,0.02 0,0.01 -0.01,0.02 0,0.01 -0.01,0.02 -0.01,0.02 -0.01,0.02 -0.01,0.02 -0.02,0.03 -0.01,0.02 -0.02,0.03 -0.02,0.03 -0.03,0.03 -0.02,0.03 -0.03,0.04 -0.02,0.02 -0.01,0.02 -0.02,0.02 -0.02,0.02 -0.02,0.02 -0.02,0.03 -0.02,0.02 -0.02,0.02 -0.02,0.03 -0.03,0.02 -0.02,0.03 -0.03,0.03 -0.03,0.03 -0.02,0.03 -0.03,0.03 -0.03,0.03 -0.03,0.03 -0.03,0.03 -0.04,0.04 -0.03,0.03 -0.04,0.04 -0.03,0.03 -0.04,0.04 -0.04,0.04 c -6.22,6.28 -7.81,15.69 -7.81,23.31 0,8.67 1.89,17.35 8.01,23.56 0.64,0.61 0.64,0.71 0.64,0.86 0,0.35 -0.18,0.49 -0.48,0.49 -0.5,0 -4.98,-3.38 -7.92,-9.7 -2.55,-5.49 -3.14,-11.02 -3.14,-15.21 0,-3.89 0.54,-9.9 3.28,-15.54 2.98,-6.13 7.28,-9.36 7.78,-9.36 0.3,0 0.48,0.14 0.48,0.5 z"
           id="path5089"
           inkscape:connector-curvature="0"
           style="fill:#000000;stroke-width:0" /><path
           d="m 530.48,421.25 0.03,0.13 0.03,0.15 0.04,0.16 0.05,0.18 0.05,0.19 0.06,0.21 0.07,0.22 0.07,0.22 0.08,0.23 0.09,0.24 0.09,0.25 0.11,0.24 0.11,0.25 0.12,0.25 0.13,0.25 0.13,0.25 0.15,0.24 0.16,0.24 0.16,0.23 0.18,0.22 0.19,0.22 0.2,0.2 0.21,0.19 0.22,0.18 0.23,0.16 0.24,0.14 0.13,0.07 0.13,0.06 0.13,0.05 0.14,0.05 0.14,0.05 0.14,0.04 0.15,0.03 0.15,0.03 0.15,0.02 0.15,0.02 0.16,0.01 0.16,0 c 0.25,0 1.44,0 2.49,-0.64 -1.39,-0.25 -2.39,-1.5 -2.39,-2.69 0,-0.79 0.54,-1.75 1.89,-1.75 1.09,0 2.69,0.89 2.69,2.89 0,2.6 -2.94,3.28 -4.63,3.28 -2.89,0 -4.64,-2.64 -5.23,-3.78 -1.25,3.28 -3.94,3.78 -5.38,3.78 -5.19,0 -8.03,-6.42 -8.03,-7.67 0,-0.5 0.5,-0.5 0.61,-0.5 0.39,0 0.55,0.11 0.64,0.55 1.69,5.28 4.98,6.53 6.67,6.53 0.96,0 2.69,-0.44 2.69,-3.33 0,-1.54 -0.84,-4.89 -2.69,-11.86 -0.79,-3.09 -2.53,-5.18 -4.73,-5.18 -0.3,0 -1.44,0 -2.49,0.65 1.25,0.24 2.35,1.28 2.35,2.69 0,1.34 -1.1,1.73 -1.85,1.73 -1.5,0 -2.75,-1.29 -2.75,-2.89 0,-2.28 2.5,-3.28 4.69,-3.28 3.3,0 5.08,3.49 5.24,3.78 0.59,-1.84 2.39,-3.78 5.37,-3.78 5.14,0 7.98,6.42 7.98,7.67 0,0.5 -0.45,0.5 -0.6,0.5 -0.44,0 -0.55,-0.2 -0.65,-0.54 -1.64,-5.33 -5.03,-6.53 -6.62,-6.53 -1.95,0 -2.75,1.59 -2.75,3.29 0,1.1 0.3,2.19 0.86,4.38 z"
           id="path5091"
           inkscape:connector-curvature="0"
           style="fill:#000000;stroke-width:0" /><path
           d="m 556.66,418.65 0,0.37 0,0.39 -0.01,0.39 -0.01,0.41 -0.04,0.84 -0.06,0.88 -0.09,0.92 -0.1,0.95 -0.14,0.97 -0.16,1.01 -0.2,1.02 -0.23,1.03 -0.26,1.05 -0.31,1.06 -0.35,1.07 -0.39,1.07 -0.21,0.53 -0.23,0.53 -0.24,0.53 -0.25,0.53 c -2.98,6.12 -7.26,9.36 -7.76,9.36 -0.3,0 -0.5,-0.19 -0.5,-0.49 0,-0.15 0,-0.25 0.93,-1.15 4.9,-4.92 7.74,-12.85 7.74,-23.27 0,-8.51 -1.84,-17.28 -8.03,-23.56 -0.64,-0.59 -0.64,-0.7 -0.64,-0.84 0,-0.3 0.2,-0.5 0.5,-0.5 0.5,0 4.97,3.39 7.92,9.71 2.53,5.47 3.12,11 3.12,15.19 z"
           id="path5093"
           inkscape:connector-curvature="0"
           style="fill:#000000;stroke-width:0" /></g>    </g>
    <g
       id="g5147"
       transform="matrix(0.43870216,0,0,0.43870216,36.4714,151.84422)">
      <g
         word-spacing="normal"
         letter-spacing="normal"
         font-size-adjust="none"
         font-stretch="normal"
         font-weight="normal"
         font-variant="normal"
         font-style="normal"
         stroke-miterlimit="10.433"
         xml:space="preserve"
         transform="matrix(1.0629921,0,0,-1.0629921,-186.02362,789.27165)"
         id="g5149"
         style="font-style:normal;font-variant:normal;font-weight:normal;font-stretch:normal;letter-spacing:normal;word-spacing:normal;text-anchor:start;fill:none;stroke:#000000;stroke-linecap:butt;stroke-linejoin:miter;stroke-miterlimit:10.43299961;stroke-opacity:1;stroke-dasharray:none;stroke-dashoffset:0"><path
           id="path5151"
           d="m 479.74,425.18 0.01,0.04 0.01,0.03 0.01,0.06 0.02,0.05 0.01,0.06 0.01,0.05 0.02,0.04 0.01,0.05 0.01,0.04 0.01,0.04 0,0.04 0.01,0.04 0.01,0.04 0.01,0.03 0,0.03 0.01,0.03 0,0.03 0.01,0.03 0,0.03 0.01,0.05 0,0.06 0,0.05 0,0.05 0.01,0.05 0,0.03 0,0.03 0,0.03 0,0.03 c 0,0.91 -0.69,1.35 -1.44,1.35 -0.5,0 -1.3,-0.3 -1.75,-1.05 -0.1,-0.25 -0.5,-1.78 -0.69,-2.69 -0.36,-1.29 -0.7,-2.64 -1,-3.98 l -2.25,-8.97 c -0.19,-0.75 -2.33,-4.23 -5.62,-4.23 -2.54,0 -3.1,2.18 -3.1,4.03 0,2.29 0.86,5.39 2.55,9.76 0.8,2.05 1,2.6 1,3.6 0,2.23 -1.59,4.07 -4.09,4.07 -4.74,0 -6.58,-7.21 -6.58,-7.67 0,-0.5 0.5,-0.5 0.61,-0.5 0.5,0 0.54,0.11 0.79,0.91 1.35,4.69 3.33,6.17 5.03,6.17 0.4,0 1.25,0 1.25,-1.59 0,-1.25 -0.5,-2.53 -0.85,-3.49 -1.99,-5.28 -2.9,-8.12 -2.9,-10.47 0,-4.42 3.15,-5.92 6.08,-5.92 1.96,0 3.64,0.85 5.03,2.24 -0.64,-2.58 -1.23,-5.03 -3.23,-7.68 -1.3,-1.68 -3.19,-3.14 -5.48,-3.14 -0.69,0 -2.94,0.16 -3.79,2.1 0.8,0 1.46,0 2.14,0.61 0.5,0.43 1,1.09 1,2.03 0,1.55 -1.34,1.75 -1.84,1.75 -1.14,0 -2.8,-0.8 -2.8,-3.24 0,-2.5 2.21,-4.34 5.29,-4.34 5.14,0 10.26,4.55 11.67,10.17 z"
           inkscape:connector-curvature="0"
           style="fill:#000000;stroke-width:0" /></g>    </g>
    <g
       id="g5387"
       transform="translate(8,-130)">
      <g
         transform="matrix(0.43870216,0,0,0.43870216,441.04257,410.61787)"
         id="g5281">
        <g
           style="font-style:normal;font-variant:normal;font-weight:normal;font-stretch:normal;letter-spacing:normal;word-spacing:normal;text-anchor:start;fill:none;stroke:#000000;stroke-linecap:butt;stroke-linejoin:miter;stroke-miterlimit:10.43299961;stroke-opacity:1;stroke-dasharray:none;stroke-dashoffset:0"
           id="g5283"
           transform="matrix(1.0629921,0,0,-1.0629921,-186.02362,789.27165)"
           xml:space="preserve"
           stroke-miterlimit="10.433"
           font-style="normal"
           font-variant="normal"
           font-weight="normal"
           font-stretch="normal"
           font-size-adjust="none"
           letter-spacing="normal"
           word-spacing="normal"><path
             style="fill:#000000;stroke-width:0"
             inkscape:connector-curvature="0"
             d="m 470.61,422.39 h 4.83 c 3.75,0 4.14,-0.8 4.14,-2.24 0,-0.36 0,-0.95 -0.34,-2.44 -0.11,-0.25 -0.16,-0.45 -0.16,-0.56 0,-0.39 0.3,-0.59 0.6,-0.59 0.5,0 0.5,0.15 0.75,1.05 l 2.75,10.81 c 0.14,0.54 0.14,0.65 0.14,0.79 0,0.1 -0.1,0.55 -0.6,0.55 -0.5,0 -0.54,-0.25 -0.75,-1.05 -1.04,-3.87 -2.18,-4.78 -6.42,-4.78 h -4.53 l 3.19,12.66 c 0.43,1.75 0.5,1.94 2.68,1.94 h 6.58 c 6.13,0 7.27,-1.64 7.27,-5.47 0,-1.16 0,-1.35 -0.14,-2.7 -0.11,-0.65 -0.11,-0.74 -0.11,-0.9 0,-0.25 0.15,-0.59 0.61,-0.59 0.54,0 0.59,0.3 0.69,1.25 l 1,8.61 c 0.15,1.34 -0.1,1.34 -1.35,1.34 h -24.4 c -1,0 -1.5,0 -1.5,-1 0,-0.54 0.45,-0.54 1.39,-0.54 1.84,0 3.23,0 3.23,-0.89 0,-0.21 0,-0.3 -0.25,-1.21 l -6.56,-26.34 c -0.5,-1.95 -0.61,-2.34 -4.55,-2.34 -0.84,0 -1.39,0 -1.39,-0.96 0,-0.59 0.59,-0.59 0.75,-0.59 1.44,0 5.13,0.16 6.58,0.16 1.64,0 5.78,-0.16 7.42,-0.16 0.45,0 1.05,0 1.05,0.95 0,0.39 -0.3,0.49 -0.3,0.55 -0.16,0.05 -0.25,0.05 -1.39,0.05 -1.11,0 -1.36,0 -2.59,0.09 -1.46,0.16 -1.6,0.36 -1.6,1 0,0.09 0,0.41 0.19,1.14 z"
             id="path5285" /><path
             style="fill:#000000;stroke-width:0"
             inkscape:connector-curvature="0"
             d="m 520.44,432.07 0.05,0 0.06,0 0.11,0.01 0.12,0 0.06,0 0.06,0.01 0.05,0 0.06,0.01 0.06,0.01 0.06,0.01 0.06,0.01 0.05,0.01 0.05,0.02 0.06,0.02 0.05,0.02 0.05,0.02 0.05,0.03 0.04,0.03 0.04,0.03 0.04,0.04 0.04,0.04 0.02,0.02 0.01,0.02 0.02,0.02 0.01,0.03 0.02,0.02 0.01,0.03 0.01,0.02 0.02,0.03 0.01,0.03 0.01,0.03 0,0.03 0.01,0.03 0.01,0.04 0,0.03 0.01,0.03 0,0.04 0,0.04 0,0.04 c 0,0.86 -0.8,0.86 -1.39,0.86 h -20.76 c -0.57,0 -1.39,0 -1.39,-0.83 0,-0.88 0.79,-0.88 1.39,-0.88 z"
             id="path5287" /><path
             style="fill:#000000;stroke-width:0"
             inkscape:connector-curvature="0"
             d="m 537.27,446.36 0,0.04 0,0.04 0,0.04 0,0.04 0,0.04 0,0.04 0,0.04 0,0.03 -0.01,0.04 0,0.03 0,0.03 0,0.03 0,0.03 -0.01,0.03 0,0.03 -0.01,0.02 0,0.03 0,0.02 -0.01,0.02 0,0.03 -0.02,0.04 -0.01,0.04 -0.02,0.03 -0.02,0.03 -0.02,0.03 -0.02,0.03 -0.03,0.02 -0.03,0.02 -0.04,0.01 -0.03,0.02 -0.04,0.01 -0.05,0.01 -0.05,0.01 -0.02,0.01 -0.03,0 -0.03,0 -0.02,0.01 -0.03,0 -0.03,0 -0.04,0 -0.03,0 -0.03,0.01 -0.04,0 -0.04,0 -0.03,0 -0.04,0 -0.04,0 -0.04,0 -0.05,0 -0.04,0 -0.05,0 c -2.23,-2.2 -5.39,-2.23 -6.82,-2.23 v -1.25 c 0.84,0 3.13,0 5.04,0.96 v -17.76 c 0,-1.16 0,-1.61 -3.48,-1.61 h -1.31 v -1.25 c 0.62,0.03 4.9,0.14 6.2,0.14 1.08,0 5.47,-0.11 6.23,-0.14 v 1.25 h -1.33 c -3.48,0 -3.48,0.45 -3.48,1.61 z"
             id="path5289" /><polygon
             style="fill:#000000;stroke-width:0"
             points="580.06,441.57 580.06,443.56 573.23,443.56 573.23,393.75 580.06,393.75 580.06,395.73 575.23,395.73 575.23,441.57 "
             id="polygon5293" /><path
             style="fill:#000000;stroke-width:0"
             inkscape:connector-curvature="0"
             d="m 605.37,425.18 0.01,0.04 0.01,0.03 0.01,0.06 0.02,0.05 0.01,0.06 0.02,0.05 0.01,0.04 0.01,0.05 0.01,0.04 0.01,0.04 0.01,0.04 0.01,0.04 0,0.04 0.01,0.03 0.01,0.03 0,0.03 0.01,0.03 0,0.03 0,0.03 0.01,0.05 0,0.06 0.01,0.05 0,0.05 0,0.05 0,0.03 0,0.03 0,0.03 0,0.03 c 0,0.91 -0.69,1.35 -1.44,1.35 -0.5,0 -1.3,-0.3 -1.75,-1.05 -0.09,-0.25 -0.5,-1.78 -0.69,-2.69 -0.36,-1.29 -0.7,-2.64 -1,-3.98 l -2.25,-8.97 c -0.18,-0.75 -2.33,-4.23 -5.62,-4.23 -2.53,0 -3.09,2.18 -3.09,4.03 0,2.29 0.85,5.39 2.54,9.76 0.8,2.05 1,2.6 1,3.6 0,2.23 -1.59,4.07 -4.09,4.07 -4.74,0 -6.58,-7.21 -6.58,-7.67 0,-0.5 0.5,-0.5 0.61,-0.5 0.5,0 0.55,0.11 0.8,0.91 1.34,4.69 3.32,6.17 5.03,6.17 0.39,0 1.25,0 1.25,-1.59 0,-1.25 -0.5,-2.53 -0.86,-3.49 -1.99,-5.28 -2.89,-8.12 -2.89,-10.47 0,-4.42 3.14,-5.92 6.07,-5.92 1.96,0 3.65,0.85 5.04,2.24 -0.64,-2.58 -1.24,-5.03 -3.24,-7.68 -1.3,-1.68 -3.18,-3.14 -5.48,-3.14 -0.69,0 -2.94,0.16 -3.78,2.1 0.79,0 1.45,0 2.14,0.61 0.5,0.43 1,1.09 1,2.03 0,1.55 -1.35,1.75 -1.85,1.75 -1.14,0 -2.79,-0.8 -2.79,-3.24 0,-2.5 2.2,-4.34 5.28,-4.34 5.14,0 10.26,4.55 11.67,10.17 z"
             id="path5295" /><path
             style="fill:#000000;stroke-width:0"
             inkscape:connector-curvature="0"
             d="m 617.54,406.25 0,0.3 -0.02,0.3 -0.01,0.29 -0.03,0.28 -0.03,0.27 -0.04,0.26 -0.04,0.26 -0.05,0.24 -0.06,0.24 -0.07,0.23 -0.07,0.22 -0.07,0.21 -0.09,0.2 -0.09,0.19 -0.09,0.19 -0.1,0.17 -0.11,0.16 -0.11,0.16 -0.12,0.14 -0.12,0.13 -0.13,0.13 -0.13,0.11 -0.14,0.1 -0.15,0.1 -0.14,0.08 -0.16,0.07 -0.16,0.06 -0.16,0.05 -0.17,0.04 -0.17,0.03 -0.18,0.01 -0.18,0.01 c -1.64,0 -2.64,-1.25 -2.64,-2.64 0,-1.34 1,-2.64 2.64,-2.64 0.6,0 1.25,0.2 1.75,0.64 0.14,0.11 0.2,0.16 0.25,0.16 0.05,0 0.1,-0.05 0.1,-0.75 0,-3.69 -1.74,-6.68 -3.4,-8.32 -0.54,-0.54 -0.54,-0.65 -0.54,-0.79 0,-0.36 0.25,-0.55 0.5,-0.55 0.54,0 4.53,3.83 4.53,9.66 z"
             id="path5297" /><path
             style="fill:#000000;stroke-width:0"
             inkscape:connector-curvature="0"
             d="m 649.88,417.65 h 13.91 c 0.69,0 1.64,0 1.64,1 0,1 -0.95,1 -1.64,1 h -13.91 v 13.96 c 0,0.68 0,1.64 -1,1.64 -0.98,0 -0.98,-0.96 -0.98,-1.64 v -13.96 h -13.95 c -0.71,0 -1.65,0 -1.65,-1 0,-1 0.94,-1 1.65,-1 h 13.95 v -13.94 c 0,-0.7 0,-1.65 0.98,-1.65 1,0 1,0.95 1,1.65 z"
             id="path5299" /><path
             style="fill:#000000;stroke-width:0"
             inkscape:connector-curvature="0"
             d="m 693.58,419.7 -0.25,0.31 -0.23,0.29 -0.23,0.29 -0.21,0.26 -0.2,0.26 -0.19,0.24 -0.19,0.23 -0.17,0.22 -0.17,0.2 -0.16,0.2 -0.16,0.19 -0.15,0.17 -0.14,0.17 -0.14,0.16 -0.13,0.16 -0.13,0.15 -0.13,0.14 -0.12,0.13 -0.12,0.13 -0.12,0.13 -0.23,0.23 -0.24,0.23 -0.24,0.22 -0.24,0.22 -0.26,0.22 -0.14,0.11 -0.14,0.11 c -2.8,2.25 -5.59,3.14 -8.13,3.14 -5.82,0 -9.62,-5.46 -9.62,-11.29 h 1.11 c 0,4.87 3.33,8.9 7.72,8.9 2.89,0 5.12,-2.09 6.17,-3.14 1.25,-1.34 2.39,-2.89 5.44,-6.81 h 0 c -2.05,-3.59 -5.74,-8.62 -11.36,-8.62 -5.28,0 -7.97,5.18 -7.97,9.67 H 671 c 0,-5.74 3.69,-11.27 9.42,-11.27 5.74,0 9.86,4.53 12.31,8.52 2.69,-3.39 3.29,-4.13 4.83,-5.38 2.78,-2.25 5.58,-3.14 8.13,-3.14 5.83,0 9.61,5.49 9.61,11.31 h -1.1 c 0,-4.89 -3.34,-8.92 -7.72,-8.92 -2.89,0 -5.14,2.1 -6.18,3.14 -1.24,1.35 -2.39,2.89 -5.42,6.83 h 0 c 2.03,3.58 5.71,8.61 11.35,8.61 5.29,0 7.97,-5.17 7.97,-9.66 h 1.1 c 0,5.72 -3.69,11.25 -9.42,11.25 -5.72,0 -9.86,-4.53 -12.3,-8.51 z"
             id="path5301" /><path
             style="fill:#000000;stroke-width:0"
             inkscape:connector-curvature="0"
             d="m 749.30468,416.76542 0,0.56572 -0.0153,0.59629 -0.0153,0.59629 -0.0153,0.62686 -0.0612,1.28433 -0.0917,1.34548 -0.12231,1.40662 -0.16819,1.45251 -0.19876,1.48309 -0.25992,1.54424 -0.2905,1.55952 -0.35166,1.57482 -0.41282,1.60539 -0.45868,1.6207 -0.53514,1.63597 -0.61157,1.63598 -0.32109,0.81034 -0.33636,0.81035 -0.36695,0.81034 -0.38224,0.81034 c -4.57156,9.35718 -11.11547,14.31098 -11.87995,14.31098 -0.44339,0 -0.76447,-0.29051 -0.76447,-0.74919 0,-0.22934 0,-0.38224 1.43722,-1.75829 7.47656,-7.52244 11.83407,-19.64702 11.83407,-35.57868 0,-13.01136 -2.82856,-26.42025 -12.29276,-36.02206 -0.97853,-0.90208 -0.97853,-1.07027 -0.97853,-1.28433 0,-0.45867 0.32108,-0.76446 0.76447,-0.76446 0.76448,0 7.59889,5.18314 12.10929,14.8461 3.88353,8.36336 4.78562,16.81845 4.78562,23.22475 z"
             id="path5305" /></g>      </g>
      <path
         style="font-style:normal;font-variant:normal;font-weight:normal;font-stretch:normal;letter-spacing:normal;word-spacing:normal;text-anchor:start;fill:#000000;stroke:#000000;stroke-width:0;stroke-linecap:butt;stroke-linejoin:miter;stroke-miterlimit:10.43299961;stroke-opacity:1;stroke-dasharray:none;stroke-dashoffset:0"
         inkscape:connector-curvature="0"
         d="m 698.12454,561.08563 0,-0.17253 -0.004,-0.18188 -0.004,-0.18187 -0.004,-0.1912 -0.0187,-0.39172 -0.028,-0.41038 -0.0373,-0.42903 -0.0513,-0.44302 -0.0606,-0.45235 -0.0793,-0.47099 -0.0886,-0.47567 -0.10726,-0.48033 -0.12592,-0.48965 -0.1399,-0.49432 -0.16321,-0.49898 -0.18654,-0.49898 -0.0979,-0.24716 -0.1026,-0.24715 -0.11191,-0.24717 -0.11659,-0.24715 c -1.39434,-2.85399 -3.39026,-4.36491 -3.62344,-4.36491 -0.13524,0 -0.23316,0.0886 -0.23316,0.2285 0,0.07 0,0.11658 0.43835,0.53628 2.28039,2.29438 3.60945,5.99243 3.60945,10.85166 0,3.96854 -0.86272,8.05831 -3.74935,10.9869 -0.29845,0.27515 -0.29845,0.32644 -0.29845,0.39173 0,0.1399 0.0979,0.23317 0.23316,0.23317 0.23318,0 2.3177,-1.58089 3.69339,-4.52813 1.1845,-2.55086 1.45964,-5.12971 1.45964,-7.08367 z"
         id="path5305-0" />
      <path
         style="font-style:normal;font-variant:normal;font-weight:normal;font-stretch:normal;letter-spacing:normal;word-spacing:normal;text-anchor:start;fill:#000000;stroke:#000000;stroke-width:0;stroke-linecap:butt;stroke-linejoin:miter;stroke-miterlimit:10.43299961;stroke-opacity:1;stroke-dasharray:none;stroke-dashoffset:0"
         inkscape:connector-curvature="0"
         d="m 614.08456,562.8421 0,-0.26381 0.007,-0.27807 0.007,-0.27808 0.007,-0.29233 0.0285,-0.59893 0.0427,-0.62745 0.057,-0.65595 0.0785,-0.67736 0.0927,-0.69162 0.1212,-0.72013 0.13548,-0.72727 0.16399,-0.7344 0.19251,-0.74865 0.21391,-0.75579 0.24954,-0.76292 0.2852,-0.76291 0.14974,-0.3779 0.15686,-0.37789 0.17112,-0.37789 0.17825,-0.37789 c 2.13189,-4.36361 5.18356,-6.67374 5.54006,-6.67374 0.20678,0 0.3565,0.13547 0.3565,0.34937 0,0.10695 0,0.17825 -0.67023,0.81995 -3.48659,3.508 -5.51866,9.16214 -5.51866,16.59166 0,6.06768 1.31906,12.32074 5.73257,16.79842 0.45632,0.42067 0.45632,0.49911 0.45632,0.59892 0,0.21391 -0.14972,0.3565 -0.3565,0.3565 -0.3565,0 -3.54364,-2.41709 -5.647,-6.92328 -1.81103,-3.90015 -2.23172,-7.84306 -2.23172,-10.83056 z"
         id="path5305-8" />
    </g>
    <g
       transform="matrix(0.37150913,0,0,0.37150913,66.70611,291.50199)"
       id="g5448">
      <g
         style="font-style:normal;font-variant:normal;font-weight:normal;font-stretch:normal;letter-spacing:normal;word-spacing:normal;text-anchor:start;fill:none;stroke:#000000;stroke-linecap:butt;stroke-linejoin:miter;stroke-miterlimit:10.43299961;stroke-opacity:1;stroke-dasharray:none;stroke-dashoffset:0"
         id="g5450"
         transform="matrix(1.0629921,0,0,-1.0629921,-186.02362,789.27165)"
         xml:space="preserve"
         stroke-miterlimit="10.433"
         font-style="normal"
         font-variant="normal"
         font-weight="normal"
         font-stretch="normal"
         font-size-adjust="none"
         letter-spacing="normal"
         word-spacing="normal"><path
           style="fill:#000000;stroke-width:0"
           inkscape:connector-curvature="0"
           d="m 478.44,422.14 0,0.74 -0.01,0.75 -0.02,0.75 -0.04,0.74 -0.04,0.75 -0.06,0.74 -0.08,0.74 -0.09,0.73 -0.12,0.73 -0.14,0.73 -0.16,0.72 -0.19,0.72 -0.21,0.72 -0.25,0.7 -0.28,0.7 -0.15,0.35 -0.16,0.34 c -2.28,4.8 -6.37,5.6 -8.47,5.6 -2.98,0 -6.62,-1.3 -8.67,-5.94 -1.59,-3.44 -1.84,-7.33 -1.84,-11.31 0,-3.74 0.2,-8.22 2.25,-12 2.14,-4.03 5.78,-5.03 8.22,-5.03 v 1.09 c -1.94,0 -4.89,1.25 -5.79,6.03 -0.54,2.98 -0.54,7.56 -0.54,10.52 0,3.18 0,6.46 0.4,9.15 0.94,5.94 4.68,6.38 5.93,6.38 1.64,0 4.93,-0.89 5.87,-5.83 0.5,-2.78 0.5,-6.58 0.5,-9.7 0,-3.75 0,-7.13 -0.55,-10.32 -0.75,-4.73 -3.59,-6.23 -5.82,-6.23 h 0 v -1.09 c 2.68,0 6.46,1.04 8.67,5.78 1.59,3.43 1.84,7.31 1.84,11.25 z"
           id="path5452" /></g>    </g>
    <polygon
       id="polygon5293-4"
       points="575.23,395.73 575.23,441.57 580.06,441.57 580.06,443.56 573.23,443.56 573.23,393.75 580.06,393.75 580.06,395.73 "
       style="font-style:normal;font-variant:normal;font-weight:normal;font-stretch:normal;letter-spacing:normal;word-spacing:normal;text-anchor:start;fill:#000000;stroke:#000000;stroke-width:0;stroke-linecap:butt;stroke-linejoin:miter;stroke-miterlimit:10.43299961;stroke-opacity:1;stroke-dasharray:none;stroke-dashoffset:0"
       transform="matrix(0,-0.46633693,-0.46633693,0,390.59128,574.55266)" />
    <rect
       transform="matrix(0,-1,1,0,0,0)"
       y="191.80881"
       x="-306.36151"
       height="7.0962934"
       width="235.49179"
       id="rect3865"
       style="opacity:0.18644068;fill:#0000ff;fill-opacity:1;fill-rule:nonzero;stroke:url(#linearGradient3873);stroke-width:0.62935697999999995;stroke-miterlimit:4;stroke-opacity:1;stroke-dasharray:none;stroke-dashoffset:0" />
    <rect
       y="396.88794"
       x="393.37622"
       height="7.0123539"
       width="306.11853"
       id="rect3865-2"
       style="opacity:0.3830509;fill:#ff0000;fill-opacity:1;fill-rule:nonzero;stroke:url(#linearGradient3890);stroke-width:0.71329659;stroke-miterlimit:4;stroke-opacity:1;stroke-dasharray:none;stroke-dashoffset:0" />
    <path
       sodipodi:type="arc"
       style="fill:#000000;fill-opacity:1;fill-rule:nonzero;stroke:#000003;stroke-width:0.40000001;stroke-miterlimit:4;stroke-opacity:1;stroke-dasharray:none;stroke-dashoffset:0"
       id="path5025-7"
       sodipodi:cx="255.71428"
       sodipodi:cy="708.07648"
       sodipodi:rx="4.2857141"
       sodipodi:ry="4.2857141"
       d="m 259.99999,708.07648 c 0,2.36693 -1.91878,4.28571 -4.28571,4.28571 -2.36694,0 -4.28571,-1.91878 -4.28571,-4.28571 0,-2.36694 1.91877,-4.28572 4.28571,-4.28572 2.36693,0 4.28571,1.91878 4.28571,4.28572 z"
       transform="translate(136.38239,-307.01137)" />
    <g
       id="g3099"
       transform="matrix(0.81,0,0,0.81,245.98061,205.86281)">
      <g
         word-spacing="normal"
         letter-spacing="normal"
         font-size-adjust="none"
         font-stretch="normal"
         font-weight="normal"
         font-variant="normal"
         font-style="normal"
         stroke-miterlimit="10.433"
         xml:space="preserve"
         transform="matrix(0.59736904,0,0,-0.59736904,-104.53958,511.52737)"
         id="g3101"
         style="font-style:normal;font-variant:normal;font-weight:normal;font-stretch:normal;letter-spacing:normal;word-spacing:normal;text-anchor:start;fill:none;stroke:#000000;stroke-linecap:butt;stroke-linejoin:miter;stroke-miterlimit:10.43299961;stroke-opacity:1;stroke-dasharray:none;stroke-dashoffset:0"><path
           id="path3103"
           d="m 472.16,421.25 0.03,0.13 0.04,0.15 0.04,0.16 0.04,0.18 0.06,0.19 0.06,0.21 0.06,0.22 0.07,0.22 0.08,0.23 0.09,0.24 0.1,0.25 0.1,0.24 0.11,0.25 0.12,0.25 0.13,0.25 0.14,0.25 0.15,0.24 0.15,0.24 0.17,0.23 0.18,0.22 0.18,0.22 0.2,0.2 0.21,0.19 0.22,0.18 0.23,0.16 0.25,0.14 0.12,0.07 0.13,0.06 0.14,0.05 0.13,0.05 0.14,0.05 0.14,0.04 0.15,0.03 0.15,0.03 0.15,0.02 0.16,0.02 0.16,0.01 0.16,0 c 0.25,0 1.44,0 2.48,-0.64 -1.39,-0.25 -2.39,-1.5 -2.39,-2.69 0,-0.79 0.55,-1.75 1.89,-1.75 1.1,0 2.69,0.89 2.69,2.89 0,2.6 -2.94,3.28 -4.63,3.28 -2.89,0 -4.64,-2.64 -5.23,-3.78 -1.25,3.28 -3.94,3.78 -5.37,3.78 -5.19,0 -8.04,-6.42 -8.04,-7.67 0,-0.5 0.5,-0.5 0.61,-0.5 0.39,0 0.55,0.11 0.64,0.55 1.69,5.28 4.99,6.53 6.68,6.53 0.95,0 2.68,-0.44 2.68,-3.33 0,-1.54 -0.84,-4.89 -2.68,-11.86 -0.8,-3.09 -2.54,-5.18 -4.74,-5.18 -0.3,0 -1.44,0 -2.48,0.65 1.25,0.24 2.34,1.28 2.34,2.69 0,1.34 -1.09,1.73 -1.84,1.73 -1.5,0 -2.75,-1.29 -2.75,-2.89 0,-2.28 2.5,-3.28 4.68,-3.28 3.3,0 5.08,3.49 5.24,3.78 0.59,-1.84 2.39,-3.78 5.37,-3.78 5.14,0 7.99,6.42 7.99,7.67 0,0.5 -0.45,0.5 -0.61,0.5 -0.44,0 -0.55,-0.2 -0.64,-0.54 -1.64,-5.33 -5.03,-6.53 -6.63,-6.53 -1.95,0 -2.75,1.59 -2.75,3.29 0,1.1 0.3,2.19 0.86,4.38 z"
           inkscape:connector-curvature="0"
           style="fill:#000000;stroke-width:0" /><path
           id="path3105"
           d="m 501.95,409.87 -0.01,0.71 -0.02,0.68 -0.03,0.66 -0.04,0.64 -0.06,0.62 -0.07,0.6 -0.09,0.57 -0.11,0.56 -0.13,0.55 -0.15,0.53 -0.17,0.51 -0.19,0.5 -0.21,0.49 -0.24,0.48 -0.26,0.47 -0.14,0.23 -0.15,0.23 c -1.08,1.61 -3.23,3 -6.03,3 v -0.98 c 1.89,0 3.7,-1.14 4.33,-3.17 0.56,-1.88 0.59,-4.39 0.59,-7.43 0,-2.57 0,-5.15 -0.45,-7.34 -0.7,-3.17 -3.06,-3.94 -4.47,-3.94 h 0 c -1.59,0 -3.72,0.94 -4.42,3.8 -0.48,2.05 -0.48,4.91 -0.48,7.48 0,2.55 0,5.21 0.51,7.11 0.74,2.75 2.97,3.49 4.39,3.49 v 0.98 c -8.08,0 -8.08,-9.51 -8.08,-12.03 0,-2.5 0,-11.81 8.08,-11.81 8.1,0 8.1,9.31 8.1,11.81 z"
           inkscape:connector-curvature="0"
           style="fill:#000000;stroke-width:0" /></g>    </g>
  </g>
</svg>
